<svg width="25" height="24" viewBox="0 0 25 24" fill="none" xmlns="http://www.w3.org/2000/svg">
<g clip-path="url(#clip0_160_4130)">
<path d="M24.457 16.457L21.414 19.5L24.457 22.543L23.043 23.957L20 20.914L16.957 23.957L15.543 22.543L18.586 19.5L15.543 16.457L16.957 15.043L20 18.086L23.043 15.043L24.457 16.457ZM2.50001 12C2.49884 10.6439 2.7735 9.30174 3.3073 8.05511C3.8411 6.80849 4.62287 5.68346 5.60509 4.74844C6.5873 3.81342 7.74944 3.08795 9.02081 2.61613C10.2922 2.14432 11.6463 1.93603 13.0007 2.00392C14.3551 2.07181 15.6815 2.41447 16.8993 3.01107C18.1171 3.60766 19.2009 4.44571 20.0847 5.47427C20.9685 6.50283 21.6338 7.7004 22.0403 8.99415C22.4467 10.2879 22.5858 11.6508 22.449 13H24.449C24.477 12.669 24.5 12.338 24.5 12C24.5 9.62663 23.7962 7.30655 22.4776 5.33316C21.1591 3.35977 19.2849 1.8217 17.0922 0.913451C14.8995 0.00519943 12.4867 -0.232441 10.1589 0.230582C7.83115 0.693605 5.69295 1.83649 4.01472 3.51472C2.33649 5.19295 1.1936 7.33115 0.730582 9.65892C0.267559 11.9867 0.505199 14.3995 1.41345 16.5922C2.3217 18.7849 3.85977 20.6591 5.83316 21.9776C7.80655 23.2962 10.1266 24 12.5 24C12.838 24 13.169 23.977 13.5 23.949V21.949C12.1093 22.09 10.7044 21.9377 9.37629 21.5018C8.04813 21.0659 6.82621 20.3562 5.78949 19.4185C4.75277 18.4809 3.92433 17.3361 3.35771 16.0583C2.79109 14.7804 2.49889 13.3979 2.50001 12V12ZM11.5 6.00001V10.586L8.79301 13.293L10.207 14.707L13.5 11.414V6.00001H11.5Z" fill="white"/>
</g>
<defs>
<clipPath id="clip0_160_4130">
<rect width="24" height="24" fill="white" transform="translate(0.5)"/>
</clipPath>
</defs>
</svg>
