<svg width="24" height="24" viewBox="0 0 24 24" fill="none" xmlns="http://www.w3.org/2000/svg">
<g clip-path="url(#clip0_160_7685)">
<path d="M2 20.9761V-0.0239258H0V20.9761C0 21.7717 0.31607 22.5348 0.87868 23.0974C1.44129 23.66 2.20435 23.9761 3 23.9761H24V21.9761H3C2.73478 21.9761 2.48043 21.8707 2.29289 21.6832C2.10536 21.4956 2 21.2413 2 20.9761Z" fill="white"/>
<path d="M22.5 3.97607H17L19.793 6.76907L15.5 11.0621L13.5 9.06207L6.28104 16.2811L7.70004 17.7001L13.505 11.9001L15.505 13.9001L21.212 8.19307L24 10.9761V5.47607C24 5.07825 23.842 4.69672 23.5607 4.41541C23.2794 4.13411 22.8979 3.97607 22.5 3.97607Z" fill="white"/>
</g>
<defs>
<clipPath id="clip0_160_7685">
<rect width="24" height="24" fill="white"/>
</clipPath>
</defs>
</svg>
