<svg width="29" height="32" viewBox="0 0 29 32" fill="none" xmlns="http://www.w3.org/2000/svg">
<path fill-rule="evenodd" clip-rule="evenodd" d="M14.3838 2.90909C7.96077 2.90909 2.90909 7.76799 2.90909 13.537C2.90909 19.3192 6.96124 23.9526 12.8397 24.2442C13.6141 24.2826 14.2222 24.9217 14.2222 25.697V28.2199C16.9525 26.7953 19.5825 25.02 21.6494 22.8984C24.2195 20.2601 25.8585 17.1556 25.8585 13.537C25.8585 7.76797 20.8069 2.90909 14.3838 2.90909ZM0 13.537C0 5.97909 6.54264 0 14.3838 0C22.2251 0 28.7676 5.97911 28.7676 13.537C28.7676 18.1204 26.6684 21.9153 23.7331 24.9283C20.8104 27.9284 16.9997 30.2213 13.369 31.8699C12.9188 32.0743 12.3956 32.036 11.9799 31.7682C11.5643 31.5005 11.3131 31.0399 11.3131 30.5455V27.0149C4.52818 26.0194 0 20.2992 0 13.537Z" fill="white"/>
</svg>
