<svg width="18" height="18" viewBox="0 0 18 18" fill="none" xmlns="http://www.w3.org/2000/svg">
<g clip-path="url(#clip0_160_7842)">
<rect width="18" height="18" fill="#B90030"/>
<path d="M14.25 0H3.75C2.7558 0.00119089 1.80267 0.396661 1.09966 1.09966C0.396661 1.80267 0.00119089 2.7558 0 3.75L0 14.25C0.00119089 15.2442 0.396661 16.1973 1.09966 16.9003C1.80267 17.6033 2.7558 17.9988 3.75 18H14.25C15.2442 17.9988 16.1973 17.6033 16.9003 16.9003C17.6033 16.1973 17.9988 15.2442 18 14.25V3.75C17.9988 2.7558 17.6033 1.80267 16.9003 1.09966C16.1973 0.396661 15.2442 0.00119089 14.25 0V0ZM16.5 14.25C16.5 14.8467 16.2629 15.419 15.841 15.841C15.419 16.2629 14.8467 16.5 14.25 16.5H3.75C3.15326 16.5 2.58097 16.2629 2.15901 15.841C1.73705 15.419 1.5 14.8467 1.5 14.25V3.75C1.5 3.15326 1.73705 2.58097 2.15901 2.15901C2.58097 1.73705 3.15326 1.5 3.75 1.5H14.25C14.8467 1.5 15.419 1.73705 15.841 2.15901C16.2629 2.58097 16.5 3.15326 16.5 3.75V14.25Z" fill="#B90030"/>
<path d="M6.99961 11.9393L4.06036 9.00004C3.91972 8.85943 3.72899 8.78045 3.53011 8.78045C3.33124 8.78045 3.14051 8.85943 2.99986 9.00004C2.85926 9.14068 2.78027 9.33141 2.78027 9.53028C2.78027 9.72916 2.85926 9.91989 2.99986 10.0605L5.93911 12.9998C6.07841 13.1391 6.2438 13.2497 6.42582 13.3251C6.60785 13.4005 6.80295 13.4393 6.99999 13.4393C7.19702 13.4393 7.39213 13.4005 7.57415 13.3251C7.75618 13.2497 7.92157 13.1391 8.06086 12.9998L14.9999 6.06079C15.1405 5.92014 15.2195 5.72941 15.2195 5.53054C15.2195 5.33167 15.1405 5.14094 14.9999 5.00029V5.00029C14.8592 4.85969 14.6685 4.7807 14.4696 4.7807C14.2707 4.7807 14.08 4.85969 13.9394 5.00029L6.99961 11.9393Z" fill="white"/>
</g>
<defs>
<clipPath id="clip0_160_7842">
<rect width="18" height="18" fill="white"/>
</clipPath>
</defs>
</svg>
