<svg width="384" height="429" viewBox="0 0 384 429" fill="none" xmlns="http://www.w3.org/2000/svg">
<g clip-path="url(#clip0_160_7553)">
<path d="M150.211 67.1841C119.825 81.302 87.4739 102.426 70.6697 128.781C44.1442 170.373 31.3065 224.929 41.2934 273.685C48.7304 309.938 74.6893 341.153 107.324 357.825C140.135 374.568 178.95 377.796 208.68 353.249C225.29 339.539 236.516 319.905 250.487 303.73C259.536 293.248 270.585 282.943 283.83 278.155C298.438 272.887 314.924 275.246 329.957 271.344C391.118 255.47 392.57 174.133 369.799 127.77C334.898 56.7198 241.775 31.6055 170.574 58.5998C164.04 61.0829 157.17 63.9561 150.211 67.1841Z" fill="#0030B9"/>
<path d="M336.668 324.197C340.901 342.625 329.426 361.018 311.028 365.257C292.63 369.495 274.268 358.002 270.036 339.575C265.804 321.147 277.278 302.755 295.676 298.516C314.074 294.277 332.436 305.77 336.668 324.197Z" fill="#0030B9"/>
<path d="M210.841 27.4199H1.29263V172.199H210.841V27.4199Z" fill="white"/>
<path d="M210.841 173.494H1.29263C0.58434 173.494 0 172.909 0 172.199V27.4197C0 26.7103 0.58434 26.125 1.29263 26.125H210.841C211.549 26.125 212.133 26.7103 212.133 27.4197V172.199C212.133 172.909 211.549 173.494 210.841 173.494ZM2.58526 170.905H209.548V28.7145H2.58526V170.905Z" fill="#141414"/>
<path d="M45.3838 50.0687C45.3838 56.2941 40.3372 61.3488 34.1219 61.3488C27.9067 61.3488 22.8601 56.2941 22.8601 50.0687C22.8601 43.8434 27.9067 38.7886 34.1219 38.7886C40.3372 38.7886 45.3838 43.8434 45.3838 50.0687Z" fill="#B90030"/>
<path d="M54.627 84.5476H13.6346C13.6346 73.2143 22.807 64.0093 34.1396 64.0093C45.4723 64.0093 54.6447 73.1966 54.6447 84.5476H54.627Z" fill="#B90030"/>
<path d="M161.721 81.4969H63.9764C63.2681 81.4969 62.6838 80.9116 62.6838 80.2021V50.8489C62.6838 50.1395 63.2681 49.5542 63.9764 49.5542H161.721C162.429 49.5542 163.013 50.1395 163.013 50.8489V80.2021C163.013 80.9116 162.429 81.4969 161.721 81.4969ZM65.269 78.9074H160.428V52.1437H65.269V78.9074Z" fill="#141414"/>
<path d="M304.778 4.57594C296.207 -0.0177048 285.725 -1.27697 276.163 1.38344C268.354 3.56498 261.306 8.31825 256.207 14.6145C253.728 17.6829 251.904 21.0527 250.328 24.6532C248.77 28.2004 247.052 31.6766 243.086 32.9182C240.695 33.6631 238.145 33.6276 235.666 33.4503C221.748 32.457 209.371 35.4367 200.34 46.7523C193.151 55.7622 189.521 68.3903 194.196 79.3867C201.084 95.5797 224.298 98.8077 237.171 88.4143C241.828 84.6543 246.007 79.8123 251.585 77.4002C256.897 75.1123 263.201 74.3141 268.531 76.6021C284.042 83.2886 302.44 81.7456 313.631 68.0178C319.882 60.3736 322.892 50.3882 323.193 40.5092C323.618 26.1607 317.81 11.5639 304.778 4.5582V4.57594Z" fill="#141414"/>
<path d="M90.555 270.901C90.2186 270.901 89.8998 270.776 89.6342 270.528L71.7145 252.579C71.201 252.065 71.201 251.249 71.7145 250.752C72.2103 250.256 73.0425 250.256 73.5383 250.752L91.4581 268.701C91.9716 269.216 91.9716 270.031 91.4581 270.528C91.2102 270.776 90.8738 270.901 90.5373 270.901H90.555Z" fill="#141414"/>
<path d="M72.6353 270.901C72.2988 270.901 71.9801 270.776 71.7145 270.528C71.201 270.014 71.201 269.198 71.7145 268.701L89.6342 250.752C90.13 250.256 90.9623 250.256 91.4581 250.752C91.9716 251.267 91.9716 252.083 91.4581 252.579L73.5383 270.528C73.2904 270.776 72.954 270.901 72.6175 270.901H72.6353Z" fill="#141414"/>
<path d="M148.582 131.655C144.651 140.895 140.401 154.286 132.22 153.754C126.713 153.399 106.97 109.254 106.97 109.254C106.97 109.254 98.842 88.0241 91.3519 73.516C83.6669 58.6177 80.3202 56.8619 76.0174 58.5291C71.7145 60.1963 69.3948 64.648 79.5411 86.02C79.5411 86.02 67.6241 80.4686 66.6148 94.4801C66.6148 94.4801 56.6456 94.9057 59.16 108.261C59.16 108.261 50.6074 113.138 56.9643 124.667C61.3557 132.613 69.0938 134.936 69.0938 134.936C69.0938 134.936 83.295 170.408 86.748 178.709C110.724 236.298 167.369 224.574 193.399 172.377L148.564 131.637L148.582 131.655Z" fill="white"/>
<path d="M134.398 218.295C133.867 218.295 133.336 218.295 132.805 218.26C112.547 217.568 95.7787 203.699 85.5793 179.205C82.392 171.561 69.9437 140.487 68.1376 135.965C66.1367 135.22 59.7798 132.382 55.8664 125.288C50.1647 114.965 55.6363 109.343 57.7788 107.676C57.0528 103.029 57.708 99.3752 59.7798 96.7679C61.6036 94.4623 64.0472 93.6287 65.4638 93.3449C65.9419 89.1769 67.4824 86.2859 70.05 84.7784C72.4228 83.3772 75.1497 83.5014 77.1683 83.9093C71.7853 72.0971 70.0854 64.9672 71.679 60.9766C72.3519 59.2739 73.6446 58.0678 75.5924 57.3229C81.2764 55.1237 85.2428 58.7596 92.5382 72.9129C99.9576 87.3146 108.121 108.562 108.209 108.775C117.382 129.296 129.245 151.856 132.344 152.441C138.559 152.849 142.455 143.254 145.908 134.794C146.421 133.535 146.917 132.293 147.413 131.123C147.572 130.733 147.909 130.449 148.334 130.36C148.741 130.271 149.166 130.378 149.485 130.662L194.32 171.401C194.745 171.792 194.869 172.412 194.603 172.944C180.579 201.056 157.648 218.278 134.434 218.278L134.398 218.295ZM74.5299 86.2327C73.4498 86.2327 72.3165 86.4278 71.3249 87.0308C69.3417 88.2014 68.1907 90.7554 67.9074 94.5864C67.8543 95.2426 67.3231 95.757 66.6679 95.7925C66.6502 95.7925 63.6577 95.9876 61.7276 98.4174C60.0631 100.546 59.6204 103.791 60.4172 108.03C60.5235 108.58 60.2579 109.112 59.7798 109.396C59.4787 109.573 52.4312 113.83 58.0799 124.064C62.1525 131.424 69.3771 133.694 69.4479 133.73C69.8198 133.836 70.1208 134.12 70.2802 134.493C70.4218 134.847 84.5168 170.053 87.9343 178.247C97.7265 201.748 113.681 215.05 132.875 215.706C155.027 216.504 178.082 199.619 191.805 172.714L149.06 133.854C148.794 134.493 148.529 135.149 148.263 135.805C144.491 145.081 140.206 155.581 132.132 155.066C130.768 154.978 127.953 154.8 116.372 131.974C110.794 120.995 105.836 109.91 105.783 109.804C105.677 109.52 97.5671 88.3965 90.2009 74.1367C82.3388 58.9014 79.5588 58.5822 76.4777 59.7705C75.1674 60.2849 74.4414 60.9411 74.0341 61.9698C72.653 65.4283 74.8309 73.1258 80.6921 85.4878C80.9222 85.9844 80.8337 86.5697 80.4441 86.9599C80.0546 87.3501 79.4702 87.4565 78.9744 87.2259C78.939 87.2259 76.8496 86.2682 74.5122 86.2682L74.5299 86.2327Z" fill="#141414"/>
<path d="M272.727 122.645C279.757 129.828 288.558 140.753 295.977 137.277C300.971 134.936 303.751 113.191 303.999 104.838C304.229 97.1402 303.202 85.2748 305.946 74.1188C308.691 62.9628 327.195 60.8877 327.195 60.8877C327.195 60.8877 332.667 43.7369 341.06 44.6769C349.471 45.5992 344.336 58.2095 344.336 58.2095C344.336 58.2095 356.872 40.3848 363.017 41.4135C366.806 42.052 367.603 45.4396 367.656 47.9581C370.348 46.6811 373.765 45.8652 375.837 48.366C379.644 52.9951 372.207 58.848 372.207 58.848C372.207 58.848 376.988 56.5601 379.502 61.402C381.999 66.244 375.554 72.0791 375.554 72.0791C376.35 73.0369 375.554 77.8256 371.109 78.9253C365.974 80.1845 347.222 84.5831 347.222 84.5831C347.222 84.5831 347.789 127.753 347.399 144.017C345.965 206.394 288.93 216.096 245.742 176.953L272.71 122.68L272.727 122.645Z" fill="white"/>
<path d="M298.899 201.57C281.262 201.57 261.908 193.323 244.874 177.875C244.449 177.485 244.325 176.864 244.591 176.332L271.559 122.042C271.754 121.669 272.108 121.403 272.515 121.332C272.922 121.261 273.347 121.403 273.631 121.705C274.516 122.609 275.437 123.585 276.375 124.56C282.661 131.194 289.78 138.714 295.428 136.071C299.111 134.351 302.369 115.905 302.706 104.767C302.759 102.922 302.741 100.776 302.706 98.5061C302.635 91.323 302.564 82.3663 304.671 73.7643C307.292 63.1226 322.449 60.2317 326.221 59.6641C327.461 56.1524 332.861 42.4246 341.202 43.3292C343.45 43.5775 345.097 44.5707 346.106 46.2556C347.133 47.9938 347.275 50.2463 347.08 52.3568C351.525 46.8232 358.519 39.3031 363.212 40.0835C366.275 40.5978 368.205 42.6907 368.754 46.0251C373.092 44.4998 375.518 45.9187 376.811 47.4794C377.873 48.7742 378.334 50.264 378.157 51.8957C377.944 53.8112 376.864 55.6203 375.748 57.0214C377.501 57.2875 379.343 58.2984 380.618 60.746C383.044 65.4461 378.723 70.5895 377.023 72.3631C377.183 73.2677 377.023 74.3318 376.722 75.2009C376.333 76.3892 375.022 79.2447 371.375 80.1315C366.983 81.1957 352.463 84.6188 348.497 85.541C348.585 92.2275 349.01 129.296 348.674 143.981C348.054 170.515 337.465 189.528 318.837 197.562C312.622 200.24 305.893 201.535 298.881 201.535L298.899 201.57ZM247.335 176.616C269.894 196.675 297.465 203.982 317.828 195.221C335.464 187.63 345.504 169.415 346.089 143.964C346.461 127.912 345.912 85.0089 345.894 84.5833C345.894 83.9803 346.301 83.4482 346.886 83.3063C347.08 83.2708 365.691 78.89 370.755 77.6662C372.561 77.2228 373.482 76.07 373.942 75.1832C374.509 74.1013 374.527 73.1258 374.456 72.842C374.084 72.3099 374.155 71.5827 374.651 71.1393C374.704 71.0861 380.335 65.9072 378.316 62.023C376.457 58.4403 373.092 59.8769 372.72 60.0543C372.118 60.3203 371.41 60.1075 371.074 59.5577C370.737 58.9901 370.861 58.263 371.375 57.8728C372.455 57.0214 375.306 54.2546 375.589 51.7183C375.695 50.7961 375.43 49.9802 374.828 49.2353C373.57 47.71 371.322 47.6745 368.187 49.1644C367.798 49.3417 367.32 49.324 366.948 49.0934C366.576 48.8628 366.346 48.4549 366.328 48.0292C366.257 44.9077 365.071 43.1164 362.769 42.7439C358.873 42.1054 350.037 52.3746 345.363 59.0079C344.991 59.54 344.265 59.7173 343.681 59.3981C343.096 59.0788 342.848 58.3871 343.096 57.7841C343.858 55.9041 345.487 50.4236 343.858 47.71C343.273 46.7345 342.299 46.1847 340.883 46.0251C334.862 45.3511 329.816 56.8618 328.381 61.349C328.222 61.8279 327.797 62.1826 327.301 62.2358C327.124 62.2536 309.647 64.3287 307.15 74.4915C305.114 82.7742 305.185 91.5358 305.256 98.577C305.273 100.865 305.291 103.029 305.256 104.927C305.114 109.573 302.918 135.486 296.491 138.501C289.16 141.924 281.351 133.694 274.48 126.44C273.985 125.926 273.507 125.412 273.028 124.915L247.3 176.669L247.335 176.616Z" fill="#141414"/>
<path d="M312.108 83.59C311.135 83.4126 310.692 82.7209 310.851 82.0292C310.975 81.4439 314.092 67.6452 327.053 65.3573C337.855 63.4595 343.309 69.3479 344.973 71.6181C348.603 70.6781 362.096 67.255 367.249 66.4569C373.057 65.5524 376.014 69.4543 376.775 71.6536C377.006 72.3276 376.651 73.0725 375.979 73.303C375.306 73.5336 374.58 73.1789 374.332 72.5049C374.172 72.0615 372.65 68.2305 367.656 69.0109C361.937 69.8977 344.92 74.314 344.743 74.3495C344.176 74.4913 343.592 74.243 343.291 73.7287C343.114 73.4094 338.652 65.9248 327.496 67.8935C316.27 69.8622 313.401 82.4371 313.366 82.5613C313.242 83.1643 312.693 83.5722 312.108 83.5722V83.59Z" fill="#141414"/>
<path d="M220.757 283.972L240.412 427.706H319.351C320.98 427.706 322.007 426.765 322.025 425.382C322.131 404.702 292.595 405.979 292.595 405.979L270.744 280.762L220.757 283.972Z" fill="white"/>
<path d="M285.725 367.899H232.514C231.806 367.899 231.222 367.314 231.222 366.604C231.222 365.895 231.806 365.31 232.514 365.31H285.725C286.433 365.31 287.017 365.895 287.017 366.604C287.017 367.314 286.433 367.899 285.725 367.899Z" fill="#B90030"/>
<path d="M319.368 429H240.412C239.774 429 239.225 428.521 239.137 427.883L219.482 284.15C219.429 283.795 219.535 283.44 219.765 283.156C219.995 282.873 220.332 282.713 220.686 282.677L270.673 279.467C271.329 279.432 271.913 279.893 272.037 280.531L293.693 404.666C297.624 404.666 310.656 405.216 318.094 412.399C321.6 415.787 323.37 420.15 323.335 425.382C323.335 427.51 321.706 429 319.386 429H319.368ZM241.545 426.411H319.351C319.882 426.411 320.732 426.269 320.732 425.364C320.75 420.859 319.262 417.135 316.287 414.261C308.425 406.67 292.808 407.256 292.648 407.273C292.028 407.309 291.426 406.848 291.32 406.209L269.664 282.128L222.226 285.178L241.545 426.411Z" fill="#141414"/>
<path d="M240.412 427.705H319.351C320.98 427.705 322.007 426.765 322.025 425.382C322.131 404.702 292.595 405.979 292.595 405.979L292.453 405.074H237.313L240.412 427.705Z" fill="#141414"/>
<path d="M133.141 427.688C131.512 427.688 130.485 426.748 130.467 425.364C130.361 404.684 153.805 405.057 153.805 405.057L122.676 312.847C118.426 300.236 125.226 286.58 137.816 282.394L162.5 274.182L211.389 410.661L169.388 427.688H133.123H133.141Z" fill="white"/>
<path d="M141.835 370.826C141.304 370.826 140.791 370.489 140.613 369.957C140.383 369.283 140.737 368.538 141.41 368.307L190.265 351.6C190.938 351.37 191.681 351.724 191.911 352.398C192.142 353.072 191.788 353.817 191.115 354.048L142.26 370.755C142.119 370.808 141.977 370.826 141.835 370.826Z" fill="#B90030"/>
<path d="M130.485 425.364C130.379 404.684 153.823 405.056 153.823 405.056L152.955 401.048L201.403 382.727L211.407 410.661L169.406 427.688H133.141C132.946 427.688 132.751 427.687 132.557 427.652C132.185 427.599 131.866 427.492 131.583 427.333C130.874 426.943 130.467 426.233 130.467 425.382L130.485 425.364Z" fill="#141414"/>
<path d="M133.141 428.982C130.821 428.982 129.21 427.493 129.192 425.364C129.157 419.352 131.034 414.439 134.735 410.768C140.312 405.252 148.458 404.063 152.052 403.815L121.472 313.237C119.294 306.816 119.772 299.935 122.782 293.869C125.792 287.803 130.998 283.281 137.426 281.135L162.11 272.923C162.783 272.71 163.491 273.047 163.739 273.721L212.629 410.2C212.859 410.856 212.54 411.583 211.903 411.832L169.901 428.858C169.742 428.929 169.583 428.947 169.423 428.947H133.141V428.982ZM153.77 406.351C153.062 406.351 142.738 406.475 136.541 412.63C133.354 415.805 131.742 420.079 131.778 425.364C131.778 426.269 132.628 426.411 133.141 426.411H169.175L209.796 409.952L161.738 275.832L138.258 283.635C132.486 285.551 127.829 289.612 125.12 295.057C122.41 300.502 121.985 306.692 123.933 312.456L155.063 404.666C155.204 405.057 155.133 405.5 154.886 405.837C154.638 406.174 154.23 406.369 153.823 406.369H153.788L153.77 406.351Z" fill="#141414"/>
<path d="M259.73 206.519C259.571 193.589 259.323 175.09 258.987 158.188L289.567 130.147C271.683 110.531 242.767 106.647 225.715 105.778H201.208C191.717 105.529 160.145 110.531 142.26 130.147L164.979 150.118C163.899 152.495 163.279 155.137 163.279 157.922C163.279 164.289 166.448 169.911 171.282 173.299L170.964 206.519L126.395 290.517L182.385 329.252L286.362 330.742L259.73 206.536V206.519Z" fill="#141414"/>
<path d="M214.364 115.852C224.882 115.533 233.258 106.399 233.311 106.346C230.602 106.08 228.052 105.902 225.732 105.778H201.225C199.738 105.76 197.684 105.849 195.223 106.097L195.099 106.807C195.099 106.807 203.811 116.171 214.364 115.834V115.852Z" fill="white"/>
<path d="M352.339 429H71.5197C70.8114 429 70.2271 428.415 70.2271 427.705C70.2271 426.996 70.8114 426.411 71.5197 426.411H352.339C353.048 426.411 353.632 426.996 353.632 427.705C353.632 428.415 353.048 429 352.339 429Z" fill="#141414"/>
<path d="M79.5411 135.468C79.0453 135.468 78.5849 135.184 78.3724 134.723C74.1758 125.66 79.6119 118.193 82.3743 115.178C70.5989 109.698 68.3501 102.674 67.9251 99.8185C67.4647 96.6615 68.3678 93.806 70.3333 92.2098C74.6362 88.6803 92.9278 95.1007 96.5578 96.4132C97.2307 96.6615 97.5671 97.4064 97.3369 98.0627C97.089 98.7366 96.3453 99.0736 95.6901 98.843C87.2438 95.7747 74.2997 92.2984 71.9801 94.2139C70.7406 95.2249 70.1739 97.2291 70.4927 99.4461C70.8645 102 73.0425 108.509 85.1543 113.582C85.5793 113.759 85.8626 114.132 85.9334 114.593C86.0042 115.036 85.8272 115.497 85.473 115.781C85.0835 116.1 76.1236 123.709 80.7275 133.641C81.0285 134.297 80.7452 135.06 80.1077 135.362C79.9307 135.45 79.7536 135.486 79.5588 135.486L79.5411 135.468Z" fill="#141414"/>
<path d="M73.7685 122.397C72.529 122.397 71.378 122.078 70.4396 121.457C66.6325 118.903 58.5403 109.52 58.2038 109.13C57.7434 108.58 57.7966 107.765 58.3455 107.303C58.8767 106.842 59.6912 106.895 60.1693 107.445C60.2579 107.534 68.3855 116.952 71.8915 119.311C73.1311 120.144 75.2205 119.931 77.2569 118.796C79.5234 117.519 80.9577 115.515 80.8868 113.688C80.8514 112.979 81.4181 112.376 82.1264 112.34C82.8346 112.305 83.4367 112.873 83.4721 113.582C83.6138 116.97 81.0108 119.648 78.5318 121.049C76.9381 121.936 75.2913 122.397 73.8039 122.397H73.7685Z" fill="#141414"/>
<path d="M65.2513 131.921C62.8431 131.921 60.8599 131.282 60.7005 131.247C60.0277 131.016 59.6558 130.289 59.8683 129.615C60.0808 128.941 60.8245 128.569 61.4974 128.782C61.5505 128.782 66.9689 130.502 69.7667 127.842C72.3342 125.394 70.0323 121.031 70.0146 120.978C69.6781 120.357 69.9083 119.559 70.5458 119.222C71.1656 118.885 71.9447 119.116 72.2988 119.736C72.4405 119.985 75.557 125.891 71.5551 129.704C69.749 131.424 67.3408 131.903 65.2513 131.903V131.921Z" fill="#141414"/>
<path d="M83.6315 94.8526C83.1711 94.8526 82.7284 94.6042 82.4982 94.1786L78.4078 86.6585C78.0714 86.0377 78.3016 85.2396 78.9213 84.9026C79.5411 84.5656 80.3379 84.7962 80.6744 85.417L84.7647 92.9371C85.1012 93.5578 84.871 94.3559 84.2512 94.6929C84.0565 94.7993 83.844 94.8526 83.6315 94.8526Z" fill="#141414"/>
<path d="M69.1115 98.9139C68.7219 98.9139 68.3501 98.7543 68.1022 98.4173L65.6232 95.2957C65.1805 94.7282 65.269 93.9301 65.8357 93.4867C66.4023 93.0433 67.1991 93.1319 67.6418 93.6995L70.1208 96.821C70.5635 97.3886 70.475 98.1867 69.9083 98.6301C69.6781 98.8252 69.3948 98.9139 69.1115 98.9139Z" fill="#141414"/>
<path d="M286.38 332.037L182.385 330.547C182.137 330.547 181.871 330.458 181.677 330.316L125.686 291.581C125.155 291.208 124.978 290.481 125.279 289.914L169.707 206.199L170.008 173.955C164.979 170.177 162.004 164.236 162.004 157.922C162.004 155.332 162.482 152.831 163.438 150.473L141.428 131.123C141.162 130.892 141.003 130.573 140.985 130.218C140.968 129.863 141.092 129.526 141.322 129.278C160.694 108.048 194.036 104.27 201.261 104.518H225.732C255.126 105.991 276.906 114.344 290.541 129.278C291.019 129.81 290.984 130.626 290.452 131.105L260.297 158.755C260.633 175.551 260.881 193.873 261.023 206.394L287.637 330.476C287.726 330.866 287.637 331.256 287.371 331.576C287.123 331.877 286.752 332.054 286.38 332.054V332.037ZM182.81 327.957L284.786 329.43L258.491 206.802C258.314 193.89 258.066 175.214 257.712 158.223C257.712 157.851 257.853 157.496 258.137 157.248L287.761 130.076C274.551 116.242 253.674 108.509 225.679 107.072H201.226C191.929 106.824 161.65 111.808 144.137 130.058L165.846 149.142C166.271 149.515 166.413 150.136 166.165 150.65C165.12 152.938 164.589 155.385 164.589 157.922C164.589 163.615 167.369 168.971 172.044 172.252C172.398 172.501 172.593 172.891 172.593 173.317L172.274 206.536C172.274 206.749 172.221 206.944 172.115 207.139L128.094 290.109L182.81 327.957Z" fill="#141414"/>
<path d="M164.979 151.395C164.27 151.395 163.686 150.81 163.686 150.1V133.233C163.686 132.524 164.27 131.938 164.979 131.938C165.687 131.938 166.271 132.524 166.271 133.233V150.1C166.271 150.81 165.687 151.395 164.979 151.395Z" fill="white"/>
<path d="M259.022 160.973C258.314 160.973 257.729 160.405 257.729 159.678L257.641 133.251C257.641 132.542 258.207 131.957 258.933 131.957C259.642 131.957 260.226 132.524 260.226 133.251L260.315 159.678C260.315 160.387 259.748 160.973 259.022 160.973Z" fill="white"/>
<path d="M244.169 199.036L155.191 160.081L126.745 225.266L215.723 264.221L244.169 199.036Z" fill="#B90030"/>
<path d="M233.311 195.558C233.187 195.558 233.063 195.558 232.939 195.505C232.249 195.292 231.877 194.582 232.072 193.891C247.388 142.899 242.537 119.594 235.772 109.024C230.744 101.149 224.617 100.209 224.369 100.173C223.661 100.067 223.165 99.4284 223.271 98.7189C223.36 98.0095 224.015 97.5129 224.723 97.6016C225.024 97.637 232.178 98.6657 237.88 107.498C244.998 118.512 250.186 142.562 234.551 194.636C234.374 195.203 233.878 195.558 233.311 195.558Z" fill="#B90030"/>
<path d="M168.396 167.145C167.617 167.109 167.068 166.506 167.104 165.779C169.99 107.693 194.692 98.0451 195.736 97.6726C196.409 97.4243 197.153 97.779 197.401 98.453C197.649 99.127 197.294 99.8542 196.639 100.102C196.391 100.191 172.487 109.769 169.707 165.921C169.671 166.613 169.104 167.145 168.414 167.145H168.396Z" fill="#B90030"/>
<path d="M216.021 170.751L167.859 202.271L187.996 233.139L236.157 201.619L216.021 170.751Z" fill="white"/>
<path d="M187.998 234.417C187.396 234.311 187.113 234.116 186.918 233.832L166.785 202.954C166.59 202.67 166.537 202.315 166.608 201.978C166.679 201.641 166.873 201.34 167.174 201.162L215.338 169.645C215.94 169.255 216.737 169.415 217.127 170.018L237.26 200.896C237.455 201.18 237.508 201.535 237.437 201.872C237.366 202.209 237.171 202.51 236.87 202.688L188.706 234.205C188.494 234.346 188.246 234.417 187.998 234.417ZM169.653 202.634L188.388 231.331L234.391 201.233L215.657 172.536L169.653 202.634Z" fill="#141414"/>
<path d="M204.962 207.743C204.82 207.743 167.723 203.539 167.723 203.539C167.015 203.45 166.502 202.812 166.59 202.102C166.679 201.393 167.298 200.879 168.024 200.967L204.059 205.047L214.807 170.355C215.019 169.663 215.745 169.291 216.418 169.504C217.091 169.716 217.481 170.444 217.268 171.118L206.201 206.838C206.024 207.388 205.528 207.743 204.962 207.743Z" fill="#141414"/>
<path d="M236.162 202.901C235.985 202.901 207.848 198.839 207.848 198.839C207.14 198.733 206.644 198.076 206.75 197.367C206.856 196.657 207.512 196.161 208.22 196.267L236.339 200.311C237.047 200.418 237.543 201.074 237.437 201.783C237.348 202.422 236.799 202.901 236.162 202.901Z" fill="#141414"/>
<path d="M187.998 234.417C187.892 234.417 187.768 234.417 187.644 234.364C186.953 234.169 186.546 233.46 186.741 232.768L194.302 205.472C194.497 204.78 195.205 204.39 195.896 204.568C196.586 204.763 196.993 205.472 196.799 206.164L189.238 233.46C189.078 234.027 188.565 234.4 187.998 234.4V234.417Z" fill="#141414"/>
<path d="M233.589 223.324L144.61 184.369L126.767 225.257L215.745 264.213L233.589 223.324Z" fill="#B90030"/>
<path d="M233.311 224.485C233.134 224.485 232.957 224.45 232.798 224.379L145.501 186.158C144.846 185.874 144.545 185.111 144.828 184.455C145.111 183.799 145.873 183.497 146.528 183.781L233.825 222.002C234.48 222.286 234.781 223.049 234.497 223.705C234.285 224.184 233.807 224.485 233.311 224.485Z" fill="#141414"/>
<path d="M215.763 265.491C215.586 265.491 215.409 265.456 215.25 265.385L126.271 226.436C125.615 226.153 125.314 225.39 125.598 224.734L154.036 159.554C154.177 159.234 154.425 158.986 154.744 158.862C155.063 158.738 155.417 158.738 155.735 158.88L200.358 178.407C201.013 178.691 201.314 179.454 201.031 180.11C200.747 180.766 199.986 181.068 199.331 180.784L155.895 161.771L128.484 224.574L215.09 262.494L242.501 199.69L231.647 194.937C230.991 194.653 230.69 193.891 230.974 193.234C231.257 192.578 232.018 192.277 232.674 192.561L244.697 197.828C245.352 198.112 245.653 198.875 245.37 199.531L216.932 264.711C216.79 265.03 216.542 265.278 216.224 265.403C216.064 265.456 215.905 265.491 215.745 265.491H215.763Z" fill="#141414"/>
<path d="M182.049 68.4079C182.562 78.9431 191.504 87.0485 202.022 86.5341C212.54 86.0198 220.633 77.0631 220.119 66.5279C219.606 55.9926 210.663 47.8873 200.145 48.4016C189.627 48.9159 181.535 57.8727 182.049 68.4079Z" fill="#141414"/>
<path d="M197.649 86.6586C186.883 86.6586 177.87 78.163 177.338 67.2908C176.789 56.0638 185.448 46.4864 196.657 45.9188C207.866 45.369 217.428 54.0419 217.994 65.2689C218.543 76.4958 209.884 86.0733 198.676 86.6408C198.339 86.6408 198.003 86.6586 197.666 86.6586H197.649ZM179.924 67.1489C180.402 76.9569 188.777 84.5125 198.552 84.0513C208.344 83.5725 215.905 75.2011 215.427 65.393C214.949 55.585 206.591 48.0294 196.799 48.4905C187.007 48.9694 179.446 57.3408 179.924 67.1489Z" fill="#141414"/>
<path d="M224.723 107.002L224.032 82.2954C215.462 81.7101 210.292 71.9375 206.892 60.7106C206.343 58.8661 204.2 58.0325 202.554 59.0434C198.623 61.4555 192.584 65.6235 192.354 68.4967C191.168 84.672 189.45 101.805 204.625 101.06L204.909 106.771C204.909 106.771 212.346 110.106 215.002 110.106C217.552 110.106 224.705 106.984 224.705 106.984L224.723 107.002Z" fill="white"/>
<path d="M199.313 85.825C198.516 85.7718 197.967 85.1511 198.02 84.4416L198.693 74.5094C198.746 73.8 199.366 73.2502 200.074 73.3034C200.783 73.3566 201.332 73.9773 201.279 74.6868L200.606 84.619C200.553 85.3107 199.986 85.825 199.313 85.825Z" fill="#141414"/>
<path d="M204.944 107.179C204.944 107.179 207.919 109.52 210.681 107.356C213.461 105.21 213.815 98.8784 213.815 98.8784L204.643 101.078L204.944 107.179Z" fill="#141414"/>
<path d="M204.643 102.373C203.952 102.373 203.386 101.84 203.35 101.149C203.315 100.439 203.864 99.8362 204.572 99.8008C209.123 99.5702 212.611 98.0981 212.647 98.0804C213.302 97.7966 214.063 98.0981 214.347 98.7543C214.63 99.4106 214.329 100.173 213.674 100.457C213.514 100.528 209.743 102.142 204.714 102.39C204.696 102.39 204.678 102.39 204.643 102.39V102.373Z" fill="#141414"/>
<path d="M202.005 88.8222C201.403 88.8222 200.871 88.4143 200.747 87.7935C200.606 87.1018 201.048 86.4101 201.739 86.2505C202.695 86.0377 202.731 84.5301 202.731 84.5124C202.731 83.8029 203.315 83.2354 204.023 83.2354C204.749 83.2354 205.316 83.8206 205.316 84.5301C205.316 85.7716 204.678 88.2724 202.288 88.7867C202.199 88.8045 202.111 88.8222 202.022 88.8222H202.005Z" fill="#141414"/>
<path d="M204.926 108.083C204.236 108.083 203.669 107.551 203.634 106.86L203.421 102.39C199.614 102.337 196.533 101.113 194.249 98.772C188.37 92.7418 188.742 80.5394 189.627 68.5675C189.68 67.8581 190.3 67.3083 191.008 67.3792C191.717 67.4324 192.248 68.0532 192.195 68.7626C191.398 79.6526 190.973 91.6954 196.09 96.963C198.109 99.0381 200.889 99.9604 204.59 99.783C205.298 99.7653 205.9 100.297 205.936 101.007L206.219 106.718C206.254 107.427 205.705 108.03 204.997 108.066C204.979 108.066 204.962 108.066 204.926 108.066V108.083Z" fill="#141414"/>
<path d="M224.723 108.297C224.015 108.297 223.448 107.729 223.43 107.037L222.74 75.7687C222.74 75.0592 223.289 74.4562 223.997 74.4385C224.723 74.4385 225.307 74.9883 225.325 75.6977L226.016 106.966C226.016 107.676 225.467 108.279 224.758 108.297H224.723Z" fill="#141414"/>
<path d="M208.804 76.247C208.804 77.0629 208.149 77.7014 207.335 77.7014C206.52 77.7014 205.883 77.0451 205.883 76.2293C205.883 75.4134 206.538 74.7749 207.352 74.7749C208.167 74.7749 208.804 75.4311 208.804 76.247Z" fill="#141414"/>
<path d="M196.993 76.1938C196.993 77.0096 196.338 77.6481 195.524 77.6481C194.709 77.6481 194.072 76.9919 194.072 76.176C194.072 75.3602 194.727 74.7217 195.541 74.7217C196.356 74.7217 196.993 75.3779 196.993 76.1938Z" fill="#141414"/>
<path d="M227.574 79.1027C227.574 82.579 224.741 85.3813 221.27 85.3635C217.8 85.3635 215.002 82.5258 215.019 79.0495C215.019 75.5732 217.853 72.7709 221.323 72.7887C224.794 72.7887 227.592 75.6264 227.574 79.1027Z" fill="white"/>
<path d="M220.155 81.4973C219.889 81.4973 219.623 81.4264 219.393 81.249C218.809 80.8233 218.685 80.0252 219.092 79.4399L221.412 76.2297C221.837 75.6444 222.634 75.5202 223.218 75.9282C223.802 76.3538 223.926 77.152 223.519 77.7373L221.199 80.9475C220.951 81.3022 220.544 81.4796 220.155 81.4796V81.4973Z" fill="#141414"/>
<path d="M382.69 5.44482H287.832V66.2441H382.69V5.44482Z" fill="white"/>
<path d="M287.849 67.5742C287.513 67.5742 287.177 67.4323 286.929 67.2018C286.681 66.9535 286.557 66.6342 286.557 66.2795L286.521 5.48027C286.521 4.77082 287.106 4.18553 287.814 4.18553L382.672 4.13232C383.008 4.13232 383.345 4.27421 383.593 4.50478C383.841 4.75309 383.965 5.07234 383.965 5.42706L384 66.2263C384 66.9357 383.416 67.521 382.707 67.521L287.849 67.5742ZM289.107 6.775L289.142 64.9848L381.415 64.9316L381.379 6.72179L289.107 6.775Z" fill="#141414"/>
<path d="M335.27 46.0427C334.986 46.0427 334.685 45.9362 334.455 45.7411L287 6.47349C286.451 6.01235 286.38 5.19649 286.822 4.64668C287.283 4.09686 288.097 4.00818 288.646 4.46932L335.27 43.063L381.857 4.41611C382.406 3.95497 383.221 4.04365 383.681 4.59347C384.142 5.14329 384.053 5.95915 383.504 6.42028L336.102 45.7411C335.854 45.9362 335.571 46.0427 335.27 46.0427Z" fill="#141414"/>
<path d="M382.707 67.5209C382.406 67.5209 382.105 67.4145 381.857 67.2017L346.655 36.2345C346.124 35.7557 346.071 34.9398 346.531 34.4077C347.009 33.8756 347.824 33.8224 348.355 34.2836L383.557 65.2507C384.089 65.7296 384.142 66.5455 383.681 67.0775C383.433 67.3613 383.062 67.5209 382.707 67.5209Z" fill="#141414"/>
<path d="M287.849 67.5742C287.495 67.5742 287.141 67.4323 286.876 67.1308C286.397 66.5987 286.451 65.7829 287 65.304L322.007 34.4432C322.538 33.9644 323.353 34.0176 323.831 34.5674C324.309 35.0995 324.256 35.9153 323.707 36.3942L288.699 67.255C288.452 67.4678 288.151 67.5742 287.849 67.5742Z" fill="#141414"/>
</g>
<defs>
<clipPath id="clip0_160_7553">
<rect width="384" height="429" fill="white"/>
</clipPath>
</defs>
</svg>
