<svg width="24" height="24" viewBox="0 0 24 24" fill="none" xmlns="http://www.w3.org/2000/svg">
<g clip-path="url(#clip0_160_7640)">
<path d="M19.9442 2.64277L12.0002 0.00976562L4.05615 2.64277C3.45763 2.84118 2.93684 3.22314 2.56775 3.7344C2.19867 4.24566 2.00007 4.86021 2.00015 5.49077V12.0008C2.00015 19.5248 11.2002 23.6798 11.5942 23.8528L11.9482 24.0098L12.3162 23.8878C12.7122 23.7558 22.0002 20.5778 22.0002 12.0008V5.49077C22.0002 4.86021 21.8016 4.24566 21.4326 3.7344C21.0635 3.22314 20.5427 2.84118 19.9442 2.64277V2.64277ZM12.4442 13.9898C12.2693 14.1658 12.0613 14.3053 11.8321 14.4002C11.603 14.4951 11.3572 14.5436 11.1092 14.5428H11.0762C10.823 14.5389 10.5733 14.4837 10.3422 14.3806C10.111 14.2775 9.90313 14.1285 9.73115 13.9428L7.42515 11.5428L8.86815 10.1608L11.1122 12.5008L16.2932 7.31977L17.7072 8.73377L12.4442 13.9898Z" fill="#B90030"/>
</g>
<defs>
<clipPath id="clip0_160_7640">
<rect width="24" height="24" fill="white"/>
</clipPath>
</defs>
</svg>
