<svg width="24" height="24" viewBox="0 0 24 24" fill="none" xmlns="http://www.w3.org/2000/svg">
<g clip-path="url(#clip0_160_7699)">
<path d="M19.0002 8V7.068C18.9988 5.72429 18.4645 4.43599 17.5143 3.48584C16.5642 2.5357 15.2759 2.00132 13.9322 2H13.0002V0H11.0002V2H10.0682C8.86547 2.00128 7.70244 2.43023 6.78695 3.21018C5.87145 3.99012 5.26316 5.07022 5.07081 6.25742C4.87845 7.44462 5.11456 8.66154 5.73694 9.69066C6.35933 10.7198 7.32741 11.494 8.46815 11.875L11.0002 12.72V20H10.0682C9.25471 19.9992 8.47482 19.6757 7.89963 19.1005C7.32444 18.5253 7.00095 17.7454 7.00015 16.932V16H5.00015V16.932C5.00148 18.2757 5.53585 19.564 6.486 20.5142C7.43614 21.4643 8.72444 21.9987 10.0682 22H11.0002V24H13.0002V22H13.9322C15.1348 21.9987 16.2979 21.5698 17.2134 20.7898C18.1289 20.0099 18.7371 18.9298 18.9295 17.7426C19.1219 16.5554 18.8857 15.3385 18.2634 14.3093C17.641 13.2802 16.6729 12.506 15.5322 12.125L13.0002 11.28V4H13.9322C14.7456 4.00079 15.5255 4.32428 16.1007 4.89947C16.6759 5.47466 16.9994 6.25456 17.0002 7.068V8H19.0002ZM14.9002 14.021C15.5914 14.2511 16.1782 14.7196 16.5556 15.3428C16.933 15.966 17.0763 16.7031 16.9599 17.4223C16.8434 18.1415 16.4749 18.7958 15.9201 19.2681C15.3654 19.7403 14.6607 19.9998 13.9322 20H13.0002V13.387L14.9002 14.021ZM11.0002 10.613L9.10015 9.979C8.40889 9.74893 7.82206 9.28037 7.44469 8.65718C7.06731 8.034 6.92402 7.29685 7.04045 6.57768C7.15689 5.8585 7.52545 5.20422 8.08018 4.73194C8.63492 4.25966 9.33961 4.00021 10.0682 4H11.0002V10.613Z" fill="white"/>
</g>
<defs>
<clipPath id="clip0_160_7699">
<rect width="24" height="24" fill="white"/>
</clipPath>
</defs>
</svg>
