<svg width="24" height="24" viewBox="0 0 24 24" fill="none" xmlns="http://www.w3.org/2000/svg">
<g clip-path="url(#clip0_160_7692)">
<path d="M19.9491 2.64477L12.0001 0.00976562L4.05115 2.64477C3.45467 2.84079 2.93528 3.22009 2.567 3.7286C2.19872 4.23712 2.00035 4.8489 2.00015 5.47677V12.0008C2.00015 19.5248 11.2001 23.6798 11.5941 23.8528L11.9481 24.0098L12.3161 23.8878C12.7111 23.7558 22.0001 20.5778 22.0001 12.0008V5.47677C21.9998 4.84894 21.8014 4.23722 21.4331 3.72874C21.0649 3.22025 20.5455 2.84092 19.9491 2.64477ZM20.0001 12.0008C20.0001 18.2638 13.6511 21.2168 12.0471 21.8618C10.4401 21.0588 4.00015 17.4948 4.00015 12.0008V5.47677C4.00024 5.26744 4.06641 5.06348 4.18923 4.89397C4.31206 4.72446 4.48526 4.59805 4.68415 4.53277L12.0001 2.10677L19.3161 4.53277C19.5152 4.59778 19.6886 4.72412 19.8114 4.89369C19.9343 5.06326 20.0004 5.26736 20.0001 5.47677V12.0008Z" fill="white"/>
</g>
<defs>
<clipPath id="clip0_160_7692">
<rect width="24" height="24" fill="white"/>
</clipPath>
</defs>
</svg>
