<svg width="24" height="24" viewBox="0 0 24 24" fill="none" xmlns="http://www.w3.org/2000/svg">
<g clip-path="url(#clip0_160_7671)">
<path d="M24 18.9993V3.99927C24 3.20362 23.6839 2.44056 23.1213 1.87795C22.5587 1.31534 21.7956 0.999268 21 0.999268H3C2.20435 0.999268 1.44129 1.31534 0.87868 1.87795C0.31607 2.44056 0 3.20362 0 3.99927L0 18.9993H11V20.9993H6V22.9993H18V20.9993H13V18.9993H24ZM2 3.99927C2 3.73405 2.10536 3.4797 2.29289 3.29216C2.48043 3.10462 2.73478 2.99927 3 2.99927H21C21.2652 2.99927 21.5196 3.10462 21.7071 3.29216C21.8946 3.4797 22 3.73405 22 3.99927V16.9993H2V3.99927ZM14.965 8.99927H20V10.9993H16.035L13.376 14.9873L10.376 8.98727L9.035 10.9993H4V8.99927H7.965L10.624 5.01127L13.624 11.0113L14.965 8.99927Z" fill="white"/>
</g>
<defs>
<clipPath id="clip0_160_7671">
<rect width="24" height="24" fill="white"/>
</clipPath>
</defs>
</svg>
