<svg width="17" height="17" viewBox="0 0 17 17" fill="none" xmlns="http://www.w3.org/2000/svg">
<path d="M4.4088 5.45898H1.17511C1.10636 5.45898 1.04043 5.48629 0.991816 5.5349C0.943204 5.58352 0.915894 5.64945 0.915894 5.7182V16.0979C0.915894 16.1666 0.943204 16.2325 0.991816 16.2812C1.04043 16.3298 1.10636 16.3571 1.17511 16.3571H4.4088C4.47755 16.3571 4.54348 16.3298 4.59209 16.2812C4.6407 16.2325 4.66801 16.1666 4.66801 16.0979V5.7182C4.66801 5.64945 4.6407 5.58352 4.59209 5.5349C4.54348 5.48629 4.47755 5.45898 4.4088 5.45898V5.45898Z" fill="white"/>
<path d="M2.79124 0.299316C2.37012 0.299316 1.95845 0.424195 1.60829 0.658161C1.25814 0.892127 0.985227 1.22467 0.824068 1.61374C0.66291 2.00281 0.620743 2.43094 0.702901 2.84397C0.785059 3.25701 0.987851 3.6364 1.28563 3.93418C1.58342 4.23197 1.96281 4.43476 2.37585 4.51692C2.78888 4.59907 3.21701 4.55691 3.60608 4.39575C3.99515 4.23459 4.32769 3.96168 4.56166 3.61152C4.79562 3.26137 4.9205 2.8497 4.9205 2.42857C4.9205 1.86386 4.69617 1.32227 4.29686 0.922961C3.89754 0.523648 3.35596 0.299316 2.79124 0.299316V0.299316Z" fill="white"/>
<path d="M12.6273 5.20098C12.0971 5.19019 11.5704 5.29064 11.0814 5.49585C10.5924 5.70107 10.1518 6.00649 9.78799 6.39243V5.71848C9.78799 5.64973 9.76067 5.5838 9.71206 5.53519C9.66345 5.48658 9.59753 5.45927 9.52878 5.45927H6.43487C6.36612 5.45927 6.30019 5.48658 6.25158 5.53519C6.20297 5.5838 6.17566 5.64973 6.17566 5.71848V16.0981C6.17566 16.1669 6.20297 16.2328 6.25158 16.2814C6.30019 16.33 6.36612 16.3574 6.43487 16.3574H9.65931C9.72806 16.3574 9.79399 16.33 9.8426 16.2814C9.89121 16.2328 9.91852 16.1669 9.91852 16.0981V10.9629C9.91852 9.23268 10.3888 8.55595 11.5951 8.55595C12.9087 8.55595 13.0134 9.63632 13.0134 11.05V16.0963C13.0134 16.165 13.0407 16.231 13.0893 16.2796C13.1379 16.3282 13.2038 16.3555 13.2726 16.3555H16.4979C16.5667 16.3555 16.6326 16.3282 16.6812 16.2796C16.7298 16.231 16.7571 16.165 16.7571 16.0963V10.4028C16.7571 7.82922 16.2665 5.20098 12.6273 5.20098Z" fill="white"/>
</svg>
