<svg width="118" height="32" viewBox="0 0 118 32" fill="none" xmlns="http://www.w3.org/2000/svg">
<path fill-rule="evenodd" clip-rule="evenodd" d="M39.9268 10.396C40.2526 10.3878 40.5765 10.4495 40.8755 10.581C41.1746 10.7126 41.4386 10.9078 41.6531 11.1545C41.8655 11.4011 42.0202 11.6909 42.1069 12.0054C42.1935 12.3199 42.2079 12.6487 42.1502 12.9673C42.0367 13.6702 41.6799 14.3136 41.1437 14.7822C40.6053 15.2529 39.9206 15.5201 39.2069 15.5406C38.8811 15.5488 38.5572 15.4872 38.2582 15.3556C37.9591 15.2241 37.6951 15.0288 37.4806 14.7822C37.2681 14.5355 37.1135 14.2437 37.0268 13.9313C36.9402 13.6168 36.9258 13.2879 36.9835 12.9673C37.097 12.2644 37.4517 11.6231 37.99 11.1524C38.5284 10.6817 39.2131 10.4145 39.9268 10.394V10.396ZM40.4321 6.80737C43.8476 6.80737 46.2299 9.56773 45.7596 12.9714C45.2894 16.373 42.1234 19.1334 38.7099 19.1334C37.8869 19.1396 37.0701 18.9669 36.3214 18.6278C36.109 20.1611 35.7976 22.5289 35.581 24.0622C35.5232 24.4239 35.3417 24.7548 35.0654 24.9953C34.789 25.2358 34.4383 25.3735 34.0712 25.3817H31.8994C31.8746 25.3817 31.8499 25.3776 31.8272 25.3673C31.8045 25.3571 31.7839 25.3427 31.7674 25.3242C31.7509 25.3057 31.7405 25.2831 31.7323 25.2584C31.7261 25.2337 31.724 25.2091 31.7282 25.1844C31.9819 23.4003 32.3263 20.7797 32.5717 18.9936C32.5697 18.9751 32.5697 18.9566 32.5717 18.9381L32.9636 16.1675C33.0894 15.257 33.2153 14.3465 33.3431 13.438C33.3431 13.2859 33.3679 13.1256 33.3906 12.9735C33.4112 12.8214 33.4525 12.5932 33.4958 12.4041L34.0671 8.34272C34.1413 7.89466 34.3682 7.48564 34.7127 7.18555C35.055 6.88547 35.4923 6.71282 35.9481 6.69637H37.7879C37.8127 6.69637 37.8374 6.70049 37.8601 6.71076C37.8828 6.72104 37.9034 6.73543 37.9199 6.75393C37.9364 6.77243 37.9488 6.79504 37.955 6.81765C37.9612 6.84231 37.9632 6.86697 37.9591 6.89164L37.8993 7.30682C38.7016 6.97797 39.5617 6.80737 40.428 6.80737H40.4321ZM78.686 3.49001C78.7643 3.47357 78.8365 3.43246 78.8922 3.37285C78.9479 3.3153 78.985 3.24131 78.9995 3.16115V3.03372L79.3604 0.624827V0.507669C79.3687 0.466562 79.3666 0.423402 79.3542 0.382295C79.3439 0.341188 79.3233 0.304196 79.2944 0.27131C79.2676 0.238424 79.2325 0.213761 79.1933 0.195262C79.1542 0.178819 79.1129 0.170586 79.0696 0.170586H77.9187C75.357 0.170586 72.9604 2.08003 72.2777 4.54441L70.0831 19.9124C69.9738 20.5598 69.6438 21.1518 69.1467 21.5854C68.6497 22.0171 68.0185 22.2658 67.3585 22.2863H67.0883C67.0202 22.311 66.9604 22.3542 66.9151 22.4076C66.8676 22.4631 66.8387 22.5289 66.8264 22.5988L66.8078 22.7241L66.4696 25.1289V25.244C66.4613 25.2851 66.4634 25.3283 66.4757 25.3694C66.4861 25.4105 66.5067 25.4475 66.5356 25.4804C66.5624 25.5112 66.5974 25.5379 66.6366 25.5544C66.6758 25.5708 66.7171 25.579 66.7604 25.579H67.9113C70.4503 25.579 72.8263 23.7045 73.5379 21.2771L75.1611 9.94386H76.7286C77.0957 9.93564 77.4464 9.79793 77.7207 9.5554C77.9971 9.31492 78.1786 8.98605 78.2363 8.62431L78.4653 6.89987C78.4694 6.8752 78.4694 6.84847 78.4632 6.82586C78.457 6.80325 78.4446 6.78065 78.4281 6.76215C78.4116 6.74365 78.391 6.72721 78.3683 6.71899C78.3456 6.70872 78.3209 6.7046 78.2961 6.7046H75.6252C75.7448 3.89286 77.2298 3.47768 78.4715 3.47768L78.688 3.48795L78.686 3.49001ZM77.5165 19.1437H80.4927C80.5814 19.1437 80.6681 19.1108 80.7361 19.0532C80.8042 18.9957 80.8516 18.9176 80.8681 18.8313V18.6874L80.9651 18.0009L81.6189 13.2468C81.7571 12.3466 82.2108 11.5224 82.8977 10.9222C83.5845 10.32 84.4611 9.97881 85.3748 9.95825H86.569C86.6597 9.95414 86.7484 9.91919 86.8165 9.85753C86.8846 9.79792 86.9299 9.71571 86.9444 9.62527L86.9691 9.44441L87.2991 7.1054V7.03346C87.3053 6.99235 87.3032 6.95125 87.2929 6.91014C87.2806 6.87109 87.262 6.83203 87.2331 6.8012C87.2063 6.77037 87.1712 6.74571 87.1341 6.72927C87.097 6.71282 87.0557 6.7046 87.0124 6.7046H83.9949C81.1919 6.7046 78.5849 8.98812 78.1992 11.7814L77.236 18.8066C77.2319 18.8477 77.236 18.8868 77.2463 18.9258C77.2587 18.9649 77.2793 18.9998 77.3061 19.0286C77.3329 19.0594 77.3659 19.082 77.4031 19.0985C77.4402 19.1149 77.4794 19.1211 77.5206 19.119L77.5103 19.1437H77.5165ZM59.0465 19.1437H62.3713C62.427 19.1437 62.4785 19.1211 62.5198 19.0861C62.561 19.0512 62.5879 19.0019 62.5961 18.9484C62.6807 18.3236 62.7694 17.6988 62.8539 17.0904V17.0616C63.5882 11.8595 64.4421 5.57209 65.1763 0.376123C65.1805 0.351459 65.1784 0.326799 65.1722 0.30419C65.166 0.279526 65.1537 0.258971 65.1372 0.238417C65.1207 0.219919 65.1021 0.205539 65.0773 0.195262C65.0546 0.184985 65.0299 0.180873 65.0052 0.180873H62.8333C62.4662 0.189095 62.1155 0.326803 61.8392 0.565226C61.5628 0.805704 61.3813 1.13456 61.3235 1.4963C60.713 5.73241 59.9829 11.062 59.393 15.3084C59.3125 15.9003 59.23 16.4861 59.1455 17.076V17.1171C59.0589 17.7255 58.9743 18.3339 58.8877 18.9443C58.8835 18.969 58.8856 18.9936 58.8918 19.0183C58.898 19.043 58.9104 19.0656 58.9269 19.0841C58.9434 19.1026 58.964 19.117 58.9867 19.1272C59.0094 19.1375 59.0341 19.1416 59.0589 19.1416H59.0424L59.0465 19.1437ZM53.0919 10.3981C53.4178 10.3899 53.7416 10.4515 54.0407 10.5831C54.3398 10.7146 54.6038 10.9099 54.8183 11.1565C55.0307 11.4032 55.1854 11.693 55.272 12.0074C55.3587 12.3219 55.3731 12.6508 55.3153 12.9694C55.2019 13.6723 54.8451 14.3156 54.3068 14.7842C53.7684 15.2549 53.0837 15.5221 52.368 15.5427C52.0421 15.5509 51.7183 15.4872 51.4192 15.3556C51.1201 15.2241 50.8561 15.0268 50.6437 14.7822C50.4313 14.5355 50.2766 14.2457 50.1899 13.9313C50.1033 13.6168 50.0909 13.2879 50.1487 12.9694C50.2621 12.2664 50.6169 11.6231 51.1552 11.1545C51.6935 10.6838 52.3783 10.4166 53.0919 10.396V10.3981ZM53.5973 6.80943C57.0128 6.80943 59.393 9.56978 58.9248 12.9735C58.4566 16.3751 55.2885 19.1355 51.873 19.1355C48.4574 19.1355 46.0772 16.3772 46.5454 12.9735C47.0116 9.56773 50.1776 6.80943 53.5973 6.80943ZM112.637 6.82792C115.896 6.82792 118.006 9.13199 118 12.139C118 12.4103 117.979 12.6816 117.944 12.9509C117.922 13.1317 117.92 13.1194 117.907 13.2037C117.872 13.401 117.827 13.5942 117.775 13.7833C117.722 13.9662 117.66 14.1491 117.587 14.3259H108.599C108.954 15.4605 110.294 16.2497 111.317 16.2497C112.039 16.2888 112.753 16.0668 113.324 15.6249H116.973C115.69 17.6967 113.838 19.1252 110.911 19.1252C107.984 19.1252 105.134 16.373 105.61 12.9817C106.087 9.58828 109.372 6.83615 112.642 6.83615V6.82382L112.637 6.82792ZM93.4393 6.82792C96.5579 6.82792 98.8081 9.13199 98.8019 12.139C98.806 12.4103 98.7875 12.6816 98.7483 12.9509C98.7483 13.0351 98.7235 13.1194 98.707 13.2037C98.672 13.3989 98.6286 13.5921 98.5791 13.7833C98.5255 13.9662 98.4595 14.1491 98.3914 14.3259H89.4029C89.5844 14.8973 89.9474 15.3926 90.4383 15.74C90.9292 16.0853 91.5191 16.2641 92.1193 16.2436C92.8329 16.2353 93.53 16.0195 94.122 15.6187H97.7706C96.4877 17.6905 94.1694 19.1211 91.7109 19.1211C88.3077 19.1211 85.9337 16.3689 86.4081 12.9776C86.8804 9.58418 90.034 6.83204 93.4372 6.83204V6.82586L93.4393 6.82792ZM108.904 11.7608H114.98C114.824 11.1586 114.465 10.6283 113.966 10.2563C113.467 9.88425 112.854 9.69105 112.229 9.71161C111.542 9.7301 110.874 9.92947 110.288 10.2892C109.704 10.6489 109.226 11.1586 108.902 11.7608H108.904ZM89.7102 11.7608H95.7885C95.6318 11.1586 95.2729 10.6283 94.7738 10.2563C94.2746 9.88425 93.662 9.69105 93.0371 9.71161C92.3503 9.7301 91.682 9.92947 91.0963 10.2892C90.5126 10.6489 90.034 11.1586 89.7102 11.7608ZM104.319 6.74366H106.332C106.695 6.73132 107.042 6.59155 107.312 6.35107C107.584 6.1106 107.764 5.78585 107.821 5.42822L108.052 3.70993C108.057 3.68527 108.054 3.66061 108.048 3.63594C108.042 3.61333 108.03 3.58867 108.013 3.57223C107.997 3.55373 107.976 3.53934 107.953 3.52906C107.931 3.51878 107.906 3.51467 107.881 3.51467H104.775C104.849 2.98644 105.155 0.881746 105.231 0.353517C105.235 0.328853 105.233 0.304193 105.227 0.281584C105.221 0.25692 105.208 0.236365 105.192 0.215811C105.175 0.197313 105.155 0.182921 105.132 0.172644C105.109 0.162367 105.084 0.15621 105.06 0.15621H102.894C102.529 0.166487 102.178 0.304197 101.904 0.54262C101.63 0.783098 101.448 1.11195 101.39 1.47164C100.794 5.69541 99.9053 10.6283 99.5093 14.8438C99.5403 17.2671 100.998 19.1355 103.527 19.1355H104.686C104.779 19.1334 104.868 19.0985 104.938 19.0368C105.008 18.9751 105.053 18.8929 105.068 18.8004V18.6853L105.4 16.2867L105.419 16.1613C105.429 16.0976 105.419 16.0319 105.386 15.9743C105.355 15.9168 105.303 15.8736 105.243 15.8489H104.973C103.669 15.8489 102.995 15.072 103.319 13.5017L104.319 6.7416V6.74366ZM64.7308 19.1355H66.5706C67.0264 19.119 67.4637 18.9484 67.8061 18.6463C68.1485 18.3462 68.3774 17.9372 68.4517 17.4891L69.947 6.90603C69.9511 6.88136 69.9491 6.85464 69.9429 6.83204C69.9367 6.80737 69.9243 6.78682 69.9078 6.76832C69.8913 6.74982 69.8707 6.73543 69.848 6.72515C69.8253 6.71488 69.8005 6.71076 69.7758 6.71076H66.4881C66.4324 6.71076 66.3809 6.73132 66.3396 6.76832C66.2984 6.80326 66.2715 6.85464 66.2633 6.90808L64.572 18.9402C64.5679 18.9649 64.5679 18.9895 64.5761 19.0142C64.5823 19.0389 64.5947 19.0615 64.6112 19.08C64.6277 19.0985 64.6483 19.1128 64.671 19.1231C64.6937 19.1313 64.7185 19.1375 64.7453 19.1355H64.735H64.7308ZM103.542 25.3612C103.94 25.3673 104.323 25.2214 104.614 24.9521C104.93 24.6644 105.132 24.2739 105.188 23.8505C105.233 23.6634 105.239 23.4661 105.202 23.277C105.167 23.0859 105.091 22.9071 104.977 22.7467C104.864 22.609 104.721 22.498 104.556 22.4282C104.393 22.3562 104.214 22.3254 104.037 22.3357C103.639 22.3316 103.253 22.4795 102.958 22.7488C102.64 23.0365 102.436 23.4271 102.382 23.8525C102.337 24.0416 102.333 24.2369 102.37 24.426C102.407 24.6171 102.486 24.7959 102.599 24.9542C102.712 25.0919 102.857 25.2008 103.02 25.2707C103.183 25.3427 103.36 25.3735 103.54 25.3632H103.544L103.542 25.3612ZM103.329 26.6622C102.807 26.6766 102.292 26.5512 101.834 26.3005C101.43 26.0764 101.11 25.727 100.924 25.3036C100.73 24.8453 100.677 24.3396 100.774 23.8505C100.858 23.3202 101.073 22.8228 101.401 22.3973C101.733 21.9698 102.162 21.6245 102.655 21.3943C103.158 21.1559 103.711 21.0326 104.27 21.0367C104.789 21.0223 105.303 21.1477 105.759 21.3943C106.163 21.6204 106.481 21.9739 106.664 22.3973C106.856 22.8557 106.908 23.3613 106.815 23.8505C106.732 24.3787 106.516 24.8782 106.188 25.3036C105.862 25.7291 105.437 26.0723 104.952 26.3025C104.451 26.5451 103.9 26.6684 103.346 26.6643L103.329 26.6601V26.6622ZM97.9418 26.6622C97.4138 26.6766 96.892 26.5512 96.4279 26.3005C96.0113 26.0805 95.6813 25.7291 95.4874 25.2995C95.2915 24.8412 95.2399 24.3355 95.3348 23.8464C95.4193 23.3181 95.6338 22.8187 95.9618 22.3932C96.2938 21.9657 96.7249 21.6225 97.2158 21.3902C97.7273 21.1518 98.2863 21.0284 98.8514 21.0326C99.3608 21.0161 99.8641 21.1394 100.305 21.3902C100.689 21.6225 100.965 21.9924 101.079 22.4261L99.7383 23.0859C99.6599 22.8557 99.5093 22.6583 99.3093 22.5227C99.1092 22.387 98.8679 22.3213 98.6266 22.3336C98.2244 22.3315 97.8346 22.4754 97.5334 22.7406C97.2076 23.0263 96.9992 23.4209 96.9435 23.8484C96.8961 24.0375 96.8899 24.2348 96.9291 24.426C96.9683 24.6171 97.0508 24.798 97.1684 24.9542C97.288 25.0899 97.4344 25.1988 97.6015 25.2687C97.7686 25.3386 97.9501 25.3694 98.1295 25.3591C98.3997 25.3591 98.6678 25.2892 98.905 25.1577C99.1422 25.0261 99.3423 24.8391 99.4867 24.611L100.613 25.2831C100.343 25.7167 99.959 26.0682 99.5032 26.2984C99.0185 26.5451 98.4801 26.6704 97.9356 26.6622H97.9418ZM93.8209 26.6622C93.6971 26.6684 93.5734 26.6458 93.4599 26.5964C93.3465 26.5471 93.2454 26.4731 93.1629 26.3786C93.0825 26.2799 93.0247 26.1648 92.9959 26.0415C92.967 25.9182 92.9649 25.7887 92.9917 25.6654C93.035 25.3879 93.1815 25.1351 93.4022 24.9583C93.6125 24.7836 93.8786 24.687 94.1509 24.6891C94.2726 24.6829 94.3963 24.7034 94.5098 24.7507C94.6232 24.798 94.7263 24.8679 94.8088 24.9583C94.8913 25.0549 94.9491 25.168 94.9779 25.2913C95.0068 25.4146 95.0068 25.542 94.9779 25.6633C94.9346 25.9408 94.7923 26.1936 94.5758 26.3765C94.3695 26.5594 94.1034 26.6601 93.8271 26.6601H93.8167L93.8209 26.6622ZM114.63 21.1148C114.917 21.0922 115.201 21.1353 115.469 21.2401C115.735 21.345 115.975 21.5094 116.166 21.7211C116.505 22.124 116.61 22.7262 116.48 23.5339L115.966 26.6581H114.374L114.846 23.7724C114.933 23.4456 114.894 23.0982 114.733 22.8002C114.65 22.6912 114.541 22.6049 114.415 22.5515C114.289 22.496 114.151 22.4754 114.015 22.4878C113.667 22.4795 113.328 22.6111 113.075 22.8495C112.792 23.1393 112.615 23.5175 112.573 23.9204L112.122 26.6622H110.534L111.006 23.7765C111.148 22.9173 110.872 22.4878 110.179 22.4857C109.83 22.4775 109.492 22.609 109.238 22.8474C108.956 23.1393 108.78 23.5154 108.737 23.9183L108.285 26.6601H106.697L107.594 21.1949H109.115L109.011 21.8198C109.251 21.5896 109.535 21.4107 109.845 21.2915C110.166 21.1682 110.507 21.1066 110.851 21.1066C111.202 21.1004 111.55 21.1785 111.864 21.3347C112.144 21.4827 112.369 21.7149 112.507 22.0006C112.78 21.7211 113.106 21.4971 113.467 21.347C113.836 21.1908 114.232 21.1107 114.632 21.1127L114.63 21.1148ZM0.734417 12.0979L14.8463 0H25.5034L14.3637 9.55745L13.6583 10.1638H10.2963C10.0674 10.1946 9.85083 10.2871 9.66933 10.433L8.99282 10.9572C8.801 11.1031 8.768 11.2264 8.91444 11.2264H15.3578C15.5042 11.2264 15.4712 11.3456 15.2836 11.4957L14.6029 12.0218C14.4214 12.1657 14.2049 12.2582 13.9759 12.287H11.2183C10.5913 12.9735 10.484 13.9601 11.012 14.5828L12.7549 16.6444L25.8809 32H15.2237L0.33841 14.5828C-0.241163 13.9046 -0.0555344 12.7844 0.73648 12.102L0.734417 12.0979Z" fill="white"/>
<path fill-rule="evenodd" clip-rule="evenodd" d="M66.8238 4.74088H70.1139C70.1675 4.74088 70.221 4.71814 70.2622 4.68299C70.3034 4.64784 70.3302 4.59822 70.3405 4.54446L70.7979 1.24443C70.802 1.21961 70.7999 1.1948 70.7937 1.16999C70.7876 1.14518 70.7752 1.12243 70.7587 1.10382C70.7422 1.08521 70.7216 1.06867 70.699 1.05833C70.6763 1.04799 70.6516 1.04179 70.6269 1.04385H68.4637C68.0991 1.05212 67.7468 1.19066 67.4707 1.43258C67.1967 1.6745 67.0134 2.00533 66.9577 2.36925L66.6446 4.54446C66.6405 4.56927 66.6405 4.59408 66.6466 4.61889C66.6528 4.6437 66.6652 4.66438 66.6817 4.68506C66.6981 4.70367 66.7187 4.7202 66.7414 4.72847C66.7641 4.73881 66.7888 4.74295 66.8135 4.74295H66.8259L66.8238 4.74088ZM27.242 10.3216L20.2848 2.00119H19.8934L14.296 6.85406L17.1987 10.3092C17.6684 10.8695 17.5119 11.7834 16.8856 12.352H19.4567C19.605 12.352 19.57 12.472 19.3784 12.6229L18.7047 13.1626C18.5296 13.3073 18.3174 13.4004 18.0949 13.4334H13.8407C13.6449 13.481 13.4637 13.5699 13.305 13.6919L12.6293 14.2212C12.4377 14.3722 12.4027 14.4921 12.551 14.4921H14.4299L11.4529 17.0684L15.5115 21.913H15.9049L26.9144 12.3727C27.5696 11.8041 27.7179 10.8778 27.2276 10.3112L27.2441 10.3236L27.242 10.3216Z" fill="#B90030"/>
</svg>
