<svg width="24" height="24" viewBox="0 0 24 24" fill="none" xmlns="http://www.w3.org/2000/svg">
<g clip-path="url(#clip0_160_7720)">
<path d="M10 11C10.5523 11 11 10.5523 11 10C11 9.44771 10.5523 9 10 9C9.44771 9 9 9.44771 9 10C9 10.5523 9.44771 11 10 11Z" fill="white"/>
<path d="M13.9999 11C14.5521 11 14.9999 10.5523 14.9999 10C14.9999 9.44771 14.5521 9 13.9999 9C13.4476 9 12.9999 9.44771 12.9999 10C12.9999 10.5523 13.4476 11 13.9999 11Z" fill="white"/>
<path d="M10 15C10.5523 15 11 14.5523 11 14C11 13.4477 10.5523 13 10 13C9.44771 13 9 13.4477 9 14C9 14.5523 9.44771 15 10 15Z" fill="white"/>
<path d="M13.9999 15C14.5521 15 14.9999 14.5523 14.9999 14C14.9999 13.4477 14.5521 13 13.9999 13C13.4476 13 12.9999 13.4477 12.9999 14C12.9999 14.5523 13.4476 15 13.9999 15Z" fill="white"/>
<path d="M-7.62939e-06 5V19H24V5H-7.62939e-06ZM17 7V17H6.99999V7H17ZM1.99999 7H4.99999V17H1.99999V7ZM22 17H19V7H22V17Z" fill="white"/>
</g>
<defs>
<clipPath id="clip0_160_7720">
<rect width="24" height="24" fill="white"/>
</clipPath>
</defs>
</svg>
