<svg width="84" height="84" viewBox="0 0 84 84" fill="none" xmlns="http://www.w3.org/2000/svg">
<circle cx="42" cy="42" r="41.5" fill="#B90030" fill-opacity="0.15" stroke="#B90030"/>
<g clip-path="url(#clip0_160_7745)">
<path d="M52.353 38.6095L32.6397 26.0242V58.0242L52.345 45.3935C52.9186 45.033 53.3915 44.533 53.7195 43.9402C54.0476 43.3474 54.22 42.6812 54.2208 42.0037C54.2216 41.3262 54.0507 40.6596 53.7241 40.066C53.3975 39.4725 52.9258 38.9714 52.353 38.6095ZM50.913 43.1362L35.313 53.1362V30.9015L50.9224 40.8668C51.1148 40.9872 51.2734 41.1547 51.383 41.3535C51.4926 41.5523 51.5496 41.7758 51.5487 42.0028C51.5477 42.2298 51.4889 42.4528 51.3776 42.6506C51.2664 42.8485 51.1065 43.0147 50.913 43.1335V43.1362Z" fill="white"/>
</g>
<defs>
<clipPath id="clip0_160_7745">
<rect width="32" height="32" fill="white" transform="translate(26 26)"/>
</clipPath>
</defs>
</svg>
