<svg width="32" height="32" viewBox="0 0 32 32" fill="none" xmlns="http://www.w3.org/2000/svg">
<g clip-path="url(#clip0_160_7747)">
<path d="M26.353 12.6095L6.63971 0.0241699V32.0242L26.345 19.3935C26.9186 19.033 27.3915 18.533 27.7195 17.9402C28.0476 17.3474 28.22 16.6812 28.2208 16.0037C28.2216 15.3262 28.0507 14.6596 27.7241 14.066C27.3975 13.4725 26.9258 12.9714 26.353 12.6095V12.6095ZM24.913 17.1362L9.31304 27.1362V4.9015L24.9224 14.8668C25.1148 14.9872 25.2734 15.1547 25.383 15.3535C25.4926 15.5523 25.5496 15.7758 25.5487 16.0028C25.5477 16.2298 25.4889 16.4528 25.3776 16.6506C25.2664 16.8485 25.1065 17.0147 24.913 17.1335V17.1362Z" fill="white"/>
</g>
<defs>
<clipPath id="clip0_160_7747">
<rect width="32" height="32" fill="white"/>
</clipPath>
</defs>
</svg>
