<svg width="592" height="345" viewBox="0 0 592 345" fill="none" xmlns="http://www.w3.org/2000/svg">
<rect width="592" height="345" rx="8" fill="#0948FB"/>
<path fill-rule="evenodd" clip-rule="evenodd" d="M81.9268 52.396C82.2526 52.3878 82.5765 52.4495 82.8755 52.581C83.1746 52.7126 83.4386 52.9078 83.6531 53.1545C83.8655 53.4011 84.0202 53.6909 84.1069 54.0054C84.1935 54.3199 84.2079 54.6487 84.1502 54.9673C84.0367 55.6702 83.6799 56.3136 83.1437 56.7822C82.6053 57.2529 81.9206 57.5201 81.2069 57.5406C80.8811 57.5488 80.5572 57.4872 80.2582 57.3556C79.9591 57.2241 79.6951 57.0288 79.4806 56.7822C79.2681 56.5355 79.1135 56.2437 79.0268 55.9313C78.9402 55.6168 78.9258 55.2879 78.9835 54.9673C79.097 54.2644 79.4517 53.6231 79.99 53.1524C80.5284 52.6817 81.2131 52.4145 81.9268 52.394V52.396ZM82.4321 48.8074C85.8476 48.8074 88.2299 51.5677 87.7596 54.9714C87.2894 58.373 84.1234 61.1334 80.7099 61.1334C79.8869 61.1396 79.0701 60.9669 78.3214 60.6278C78.109 62.1611 77.7976 64.5289 77.581 66.0622C77.5232 66.4239 77.3417 66.7548 77.0654 66.9953C76.789 67.2358 76.4383 67.3735 76.0712 67.3817H73.8994C73.8746 67.3817 73.8499 67.3776 73.8272 67.3673C73.8045 67.3571 73.7839 67.3427 73.7674 67.3242C73.7509 67.3057 73.7405 67.2831 73.7323 67.2584C73.7261 67.2337 73.724 67.2091 73.7282 67.1844C73.9819 65.4003 74.3263 62.7797 74.5717 60.9936C74.5697 60.9751 74.5697 60.9566 74.5717 60.9381L74.9636 58.1675C75.0894 57.257 75.2153 56.3465 75.3431 55.438C75.3431 55.2859 75.3679 55.1256 75.3906 54.9735C75.4112 54.8214 75.4525 54.5932 75.4958 54.4041L76.0671 50.3427C76.1413 49.8947 76.3682 49.4856 76.7127 49.1856C77.055 48.8855 77.4923 48.7128 77.9481 48.6964H79.7879C79.8127 48.6964 79.8374 48.7005 79.8601 48.7108C79.8828 48.721 79.9034 48.7354 79.9199 48.7539C79.9364 48.7724 79.9488 48.795 79.955 48.8176C79.9612 48.8423 79.9632 48.867 79.9591 48.8916L79.8993 49.3068C80.7016 48.978 81.5617 48.8074 82.428 48.8074H82.4321ZM120.686 45.49C120.764 45.4736 120.837 45.4325 120.892 45.3729C120.948 45.3153 120.985 45.2413 120.999 45.1612V45.0337L121.36 42.6248V42.5077C121.369 42.4666 121.367 42.4234 121.354 42.3823C121.344 42.3412 121.323 42.3042 121.294 42.2713C121.268 42.2384 121.233 42.2138 121.193 42.1953C121.154 42.1788 121.113 42.1706 121.07 42.1706H119.919C117.357 42.1706 114.96 44.08 114.278 46.5444L112.083 61.9124C111.974 62.5598 111.644 63.1518 111.147 63.5854C110.65 64.0171 110.019 64.2658 109.359 64.2863H109.088C109.02 64.311 108.96 64.3542 108.915 64.4076C108.868 64.4631 108.839 64.5289 108.826 64.5988L108.808 64.7241L108.47 67.1289V67.244C108.461 67.2851 108.463 67.3283 108.476 67.3694C108.486 67.4105 108.507 67.4475 108.536 67.4804C108.562 67.5112 108.597 67.5379 108.637 67.5544C108.676 67.5708 108.717 67.579 108.76 67.579H109.911C112.45 67.579 114.826 65.7045 115.538 63.2771L117.161 51.9439H118.729C119.096 51.9356 119.446 51.7979 119.721 51.5554C119.997 51.3149 120.179 50.9861 120.236 50.6243L120.465 48.8999C120.469 48.8752 120.469 48.8485 120.463 48.8259C120.457 48.8033 120.445 48.7806 120.428 48.7621C120.412 48.7436 120.391 48.7272 120.368 48.719C120.346 48.7087 120.321 48.7046 120.296 48.7046H117.625C117.745 45.8929 119.23 45.4777 120.471 45.4777L120.688 45.488L120.686 45.49ZM119.517 61.1437H122.493C122.581 61.1437 122.668 61.1108 122.736 61.0532C122.804 60.9957 122.852 60.9176 122.868 60.8313V60.6874L122.965 60.0009L123.619 55.2468C123.757 54.3466 124.211 53.5224 124.898 52.9222C125.584 52.32 126.461 51.9788 127.375 51.9583H128.569C128.66 51.9541 128.748 51.9192 128.816 51.8575C128.885 51.7979 128.93 51.7157 128.944 51.6253L128.969 51.4444L129.299 49.1054V49.0335C129.305 48.9924 129.303 48.9512 129.293 48.9101C129.281 48.8711 129.262 48.832 129.233 48.8012C129.206 48.7704 129.171 48.7457 129.134 48.7293C129.097 48.7128 129.056 48.7046 129.012 48.7046H125.995C123.192 48.7046 120.585 50.9881 120.199 53.7814L119.236 60.8066C119.232 60.8477 119.236 60.8868 119.246 60.9258C119.259 60.9649 119.279 60.9998 119.306 61.0286C119.333 61.0594 119.366 61.082 119.403 61.0985C119.44 61.1149 119.479 61.1211 119.521 61.119L119.51 61.1437H119.517ZM101.046 61.1437H104.371C104.427 61.1437 104.479 61.1211 104.52 61.0861C104.561 61.0512 104.588 61.0019 104.596 60.9484C104.681 60.3236 104.769 59.6988 104.854 59.0904V59.0616C105.588 53.8595 106.442 47.5721 107.176 42.3761C107.18 42.3515 107.178 42.3268 107.172 42.3042C107.166 42.2795 107.154 42.259 107.137 42.2384C107.121 42.2199 107.102 42.2055 107.077 42.1953C107.055 42.185 107.03 42.1809 107.005 42.1809H104.833C104.466 42.1891 104.116 42.3268 103.839 42.5652C103.563 42.8057 103.381 43.1346 103.324 43.4963C102.713 47.7324 101.983 53.062 101.393 57.3084C101.313 57.9003 101.23 58.4861 101.145 59.076V59.1171C101.059 59.7255 100.974 60.3339 100.888 60.9443C100.884 60.969 100.886 60.9936 100.892 61.0183C100.898 61.043 100.91 61.0656 100.927 61.0841C100.943 61.1026 100.964 61.117 100.987 61.1272C101.009 61.1375 101.034 61.1416 101.059 61.1416H101.042L101.046 61.1437ZM95.0919 52.3981C95.4178 52.3899 95.7416 52.4515 96.0407 52.5831C96.3398 52.7146 96.6038 52.9099 96.8183 53.1565C97.0307 53.4032 97.1854 53.693 97.272 54.0074C97.3587 54.3219 97.3731 54.6508 97.3153 54.9694C97.2019 55.6723 96.8451 56.3156 96.3068 56.7842C95.7684 57.2549 95.0837 57.5221 94.368 57.5427C94.0421 57.5509 93.7183 57.4872 93.4192 57.3556C93.1201 57.2241 92.8561 57.0268 92.6437 56.7822C92.4313 56.5355 92.2766 56.2457 92.1899 55.9313C92.1033 55.6168 92.0909 55.2879 92.1487 54.9694C92.2621 54.2664 92.6169 53.6231 93.1552 53.1545C93.6935 52.6838 94.3783 52.4166 95.0919 52.396V52.3981ZM95.5973 48.8094C99.0128 48.8094 101.393 51.5698 100.925 54.9735C100.457 58.3751 97.2885 61.1355 93.873 61.1355C90.4574 61.1355 88.0772 58.3772 88.5454 54.9735C89.0116 51.5677 92.1776 48.8094 95.5973 48.8094ZM154.637 48.8279C157.896 48.8279 160.006 51.132 160 54.139C160 54.4103 159.979 54.6816 159.944 54.9509C159.922 55.1317 159.92 55.1194 159.907 55.2037C159.872 55.401 159.827 55.5942 159.775 55.7833C159.722 55.9662 159.66 56.1491 159.587 56.3259H150.599C150.954 57.4605 152.294 58.2497 153.317 58.2497C154.039 58.2888 154.753 58.0668 155.324 57.6249H158.973C157.69 59.6967 155.838 61.1252 152.911 61.1252C149.984 61.1252 147.134 58.373 147.61 54.9817C148.087 51.5883 151.372 48.8362 154.642 48.8362V48.8238L154.637 48.8279ZM135.439 48.8279C138.558 48.8279 140.808 51.132 140.802 54.139C140.806 54.4103 140.787 54.6816 140.748 54.9509C140.748 55.0351 140.724 55.1194 140.707 55.2037C140.672 55.3989 140.629 55.5921 140.579 55.7833C140.526 55.9662 140.46 56.1491 140.391 56.3259H131.403C131.584 56.8973 131.947 57.3926 132.438 57.74C132.929 58.0853 133.519 58.2641 134.119 58.2436C134.833 58.2353 135.53 58.0195 136.122 57.6187H139.771C138.488 59.6905 136.169 61.1211 133.711 61.1211C130.308 61.1211 127.934 58.3689 128.408 54.9776C128.88 51.5842 132.034 48.832 135.437 48.832V48.8259L135.439 48.8279ZM150.904 53.7608H156.98C156.824 53.1586 156.465 52.6283 155.966 52.2563C155.467 51.8842 154.854 51.6911 154.229 51.7116C153.542 51.7301 152.874 51.9295 152.288 52.2892C151.704 52.6489 151.226 53.1586 150.902 53.7608H150.904ZM131.71 53.7608H137.789C137.632 53.1586 137.273 52.6283 136.774 52.2563C136.275 51.8842 135.662 51.6911 135.037 51.7116C134.35 51.7301 133.682 51.9295 133.096 52.2892C132.513 52.6489 132.034 53.1586 131.71 53.7608ZM146.319 48.7437H148.332C148.695 48.7313 149.042 48.5916 149.312 48.3511C149.584 48.1106 149.764 47.7859 149.821 47.4282L150.052 45.7099C150.057 45.6853 150.054 45.6606 150.048 45.6359C150.042 45.6133 150.03 45.5887 150.013 45.5722C149.997 45.5537 149.976 45.5393 149.953 45.5291C149.931 45.5188 149.906 45.5147 149.881 45.5147H146.775C146.849 44.9864 147.155 42.8817 147.231 42.3535C147.235 42.3289 147.233 42.3042 147.227 42.2816C147.221 42.2569 147.208 42.2364 147.192 42.2158C147.175 42.1973 147.155 42.1829 147.132 42.1726C147.109 42.1624 147.084 42.1562 147.06 42.1562H144.894C144.529 42.1665 144.178 42.3042 143.904 42.5426C143.63 42.7831 143.448 43.1119 143.39 43.4716C142.794 47.6954 141.905 52.6283 141.509 56.8438C141.54 59.2671 142.998 61.1355 145.527 61.1355H146.686C146.779 61.1334 146.868 61.0985 146.938 61.0368C147.008 60.9751 147.053 60.8929 147.068 60.8004V60.6853L147.4 58.2867L147.419 58.1613C147.429 58.0976 147.419 58.0319 147.386 57.9743C147.355 57.9168 147.303 57.8736 147.243 57.8489H146.973C145.669 57.8489 144.995 57.072 145.319 55.5017L146.319 48.7416V48.7437ZM106.731 61.1355H108.571C109.026 61.119 109.464 60.9484 109.806 60.6463C110.148 60.3462 110.377 59.9372 110.452 59.4891L111.947 48.906C111.951 48.8814 111.949 48.8546 111.943 48.832C111.937 48.8074 111.924 48.7868 111.908 48.7683C111.891 48.7498 111.871 48.7354 111.848 48.7252C111.825 48.7149 111.801 48.7108 111.776 48.7108H108.488C108.432 48.7108 108.381 48.7313 108.34 48.7683C108.298 48.8033 108.272 48.8546 108.263 48.9081L106.572 60.9402C106.568 60.9649 106.568 60.9895 106.576 61.0142C106.582 61.0389 106.595 61.0615 106.611 61.08C106.628 61.0985 106.648 61.1128 106.671 61.1231C106.694 61.1313 106.718 61.1375 106.745 61.1355H106.735H106.731ZM145.542 67.3612C145.94 67.3673 146.323 67.2214 146.614 66.9521C146.93 66.6644 147.132 66.2739 147.188 65.8505C147.233 65.6634 147.239 65.4661 147.202 65.277C147.167 65.0859 147.091 64.9071 146.977 64.7467C146.864 64.609 146.721 64.498 146.556 64.4282C146.393 64.3562 146.214 64.3254 146.037 64.3357C145.639 64.3316 145.253 64.4795 144.958 64.7488C144.64 65.0365 144.436 65.4271 144.382 65.8525C144.337 66.0416 144.333 66.2369 144.37 66.426C144.407 66.6171 144.486 66.7959 144.599 66.9542C144.712 67.0919 144.857 67.2008 145.02 67.2707C145.183 67.3427 145.36 67.3735 145.54 67.3632H145.544L145.542 67.3612ZM145.329 68.6622C144.807 68.6766 144.292 68.5512 143.834 68.3005C143.43 68.0764 143.11 67.727 142.924 67.3036C142.73 66.8453 142.677 66.3396 142.774 65.8505C142.858 65.3202 143.073 64.8228 143.401 64.3973C143.733 63.9698 144.162 63.6245 144.655 63.3943C145.158 63.1559 145.711 63.0326 146.27 63.0367C146.789 63.0223 147.303 63.1477 147.759 63.3943C148.163 63.6204 148.481 63.9739 148.664 64.3973C148.856 64.8557 148.908 65.3613 148.815 65.8505C148.732 66.3787 148.516 66.8782 148.188 67.3036C147.862 67.7291 147.437 68.0723 146.952 68.3025C146.451 68.5451 145.9 68.6684 145.346 68.6643L145.329 68.6601V68.6622ZM139.942 68.6622C139.414 68.6766 138.892 68.5512 138.428 68.3005C138.011 68.0805 137.681 67.7291 137.487 67.2995C137.291 66.8412 137.24 66.3355 137.335 65.8464C137.419 65.3181 137.634 64.8187 137.962 64.3932C138.294 63.9657 138.725 63.6225 139.216 63.3902C139.727 63.1518 140.286 63.0284 140.851 63.0326C141.361 63.0161 141.864 63.1394 142.305 63.3902C142.689 63.6225 142.965 63.9924 143.079 64.4261L141.738 65.0859C141.66 64.8557 141.509 64.6583 141.309 64.5227C141.109 64.387 140.868 64.3213 140.627 64.3336C140.224 64.3315 139.835 64.4754 139.533 64.7406C139.208 65.0263 138.999 65.4209 138.944 65.8484C138.896 66.0375 138.89 66.2348 138.929 66.426C138.968 66.6171 139.051 66.798 139.168 66.9542C139.288 67.0899 139.434 67.1988 139.601 67.2687C139.769 67.3386 139.95 67.3694 140.13 67.3591C140.4 67.3591 140.668 67.2892 140.905 67.1577C141.142 67.0261 141.342 66.8391 141.487 66.611L142.613 67.2831C142.343 67.7167 141.959 68.0682 141.503 68.2984C141.018 68.5451 140.48 68.6704 139.936 68.6622H139.942ZM135.821 68.6622C135.697 68.6684 135.573 68.6458 135.46 68.5964C135.346 68.5471 135.245 68.4731 135.163 68.3786C135.082 68.2799 135.025 68.1648 134.996 68.0415C134.967 67.9182 134.965 67.7887 134.992 67.6654C135.035 67.3879 135.181 67.1351 135.402 66.9583C135.613 66.7836 135.879 66.687 136.151 66.6891C136.273 66.6829 136.396 66.7034 136.51 66.7507C136.623 66.798 136.726 66.8679 136.809 66.9583C136.891 67.0549 136.949 67.168 136.978 67.2913C137.007 67.4146 137.007 67.542 136.978 67.6633C136.935 67.9408 136.792 68.1936 136.576 68.3765C136.37 68.5594 136.103 68.6601 135.827 68.6601H135.817L135.821 68.6622ZM156.63 63.1148C156.917 63.0922 157.201 63.1353 157.469 63.2401C157.735 63.345 157.975 63.5094 158.166 63.7211C158.505 64.124 158.61 64.7262 158.48 65.5339L157.966 68.6581H156.374L156.846 65.7724C156.933 65.4456 156.894 65.0982 156.733 64.8002C156.65 64.6912 156.541 64.6049 156.415 64.5515C156.289 64.496 156.151 64.4754 156.015 64.4878C155.667 64.4795 155.328 64.6111 155.075 64.8495C154.792 65.1393 154.615 65.5175 154.573 65.9204L154.122 68.6622H152.534L153.006 65.7765C153.148 64.9173 152.872 64.4878 152.179 64.4857C151.83 64.4775 151.492 64.609 151.238 64.8474C150.956 65.1393 150.78 65.5154 150.737 65.9183L150.285 68.6601H148.697L149.594 63.1949H151.115L151.011 63.8198C151.251 63.5896 151.535 63.4107 151.845 63.2915C152.166 63.1682 152.507 63.1066 152.851 63.1066C153.202 63.1004 153.55 63.1785 153.864 63.3347C154.144 63.4827 154.369 63.7149 154.507 64.0006C154.78 63.7211 155.106 63.4971 155.467 63.347C155.836 63.1908 156.232 63.1107 156.632 63.1127L156.63 63.1148ZM42.7344 54.0979L56.8463 42H67.5034L56.3637 51.5575L55.6583 52.1638H52.2963C52.0674 52.1946 51.8508 52.2871 51.6693 52.433L50.9928 52.9572C50.801 53.1031 50.768 53.2264 50.9144 53.2264H57.3578C57.5042 53.2264 57.4712 53.3456 57.2836 53.4957L56.6029 54.0218C56.4214 54.1657 56.2049 54.2582 55.9759 54.287H53.2183C52.5913 54.9735 52.484 55.9601 53.012 56.5828L54.7549 58.6444L67.8809 74H57.2237L42.3384 56.5828C41.7588 55.9046 41.9445 54.7844 42.7365 54.102L42.7344 54.0979Z" fill="#0738C5"/>
<path fill-rule="evenodd" clip-rule="evenodd" d="M108.824 46.7409H112.114C112.167 46.7409 112.221 46.7181 112.262 46.683C112.303 46.6478 112.33 46.5982 112.34 46.5445L112.798 43.2444C112.802 43.2196 112.8 43.1948 112.794 43.17C112.788 43.1452 112.775 43.1224 112.759 43.1038C112.742 43.0852 112.722 43.0687 112.699 43.0583C112.676 43.048 112.652 43.0418 112.627 43.0439H110.464C110.099 43.0521 109.747 43.1907 109.471 43.4326C109.197 43.6745 109.013 44.0053 108.958 44.3692L108.645 46.5445C108.64 46.5693 108.64 46.5941 108.647 46.6189C108.653 46.6437 108.665 46.6644 108.682 46.6851C108.698 46.7037 108.719 46.7202 108.741 46.7285C108.764 46.7388 108.789 46.7429 108.813 46.7429H108.826L108.824 46.7409ZM69.2419 52.3216L62.2848 44.0012H61.8933L56.2959 48.8541L59.1987 52.3092C59.6684 52.8695 59.5118 53.7834 58.8855 54.352H61.4566C61.6049 54.352 61.5699 54.472 61.3783 54.6229L60.7046 55.1626C60.5295 55.3073 60.3173 55.4004 60.0948 55.4334H55.8406C55.6449 55.481 55.4636 55.5699 55.305 55.6919L54.6292 56.2212C54.4376 56.3722 54.4026 56.4921 54.5509 56.4921H56.4298L53.4529 59.0684L57.5114 63.913H57.9049L68.9144 54.3727C69.5695 53.8041 69.7178 52.8778 69.2275 52.3112L69.244 52.3236L69.2419 52.3216Z" fill="#0738C5"/>
<path d="M54.768 218.12L52.08 215.24C51.968 215.256 51.848 215.264 51.72 215.264C51.592 215.28 51.472 215.288 51.36 215.288C49.648 215.288 48.168 214.976 46.92 214.352C45.688 213.712 44.736 212.76 44.064 211.496C43.408 210.232 43.08 208.656 43.08 206.768C43.08 204.832 43.416 203.24 44.088 201.992C44.76 200.728 45.728 199.792 46.992 199.184C48.256 198.56 49.76 198.248 51.504 198.248C53.28 198.248 54.792 198.56 56.04 199.184C57.304 199.792 58.272 200.728 58.944 201.992C59.616 203.24 59.952 204.832 59.952 206.768C59.952 208.768 59.584 210.408 58.848 211.688C58.112 212.968 57.072 213.912 55.728 214.52L59.424 218.12H54.768ZM51.504 212.36C52.288 212.36 52.976 212.248 53.568 212.024C54.16 211.8 54.656 211.464 55.056 211.016C55.456 210.568 55.76 210.024 55.968 209.384C56.176 208.728 56.28 207.984 56.28 207.152V206.408C56.28 205.56 56.176 204.808 55.968 204.152C55.76 203.496 55.456 202.952 55.056 202.52C54.656 202.072 54.16 201.736 53.568 201.512C52.976 201.288 52.288 201.176 51.504 201.176C50.736 201.176 50.056 201.288 49.464 201.512C48.872 201.736 48.376 202.072 47.976 202.52C47.576 202.952 47.272 203.496 47.064 204.152C46.872 204.808 46.776 205.56 46.776 206.408V207.152C46.776 207.984 46.872 208.728 47.064 209.384C47.272 210.024 47.576 210.568 47.976 211.016C48.376 211.464 48.872 211.8 49.464 212.024C50.056 212.248 50.736 212.36 51.504 212.36ZM66.1673 215.288C64.8873 215.288 63.8713 214.936 63.1193 214.232C62.3673 213.528 61.9913 212.392 61.9913 210.824V202.376H65.3273V210.272C65.3273 210.688 65.3753 211.04 65.4713 211.328C65.5673 211.6 65.7033 211.824 65.8793 212C66.0713 212.176 66.3033 212.304 66.5753 212.384C66.8473 212.464 67.1513 212.504 67.4873 212.504C67.9833 212.504 68.4313 212.384 68.8313 212.144C69.2313 211.904 69.5433 211.576 69.7673 211.16C69.9913 210.728 70.1033 210.248 70.1033 209.72V202.376H73.4393V215H70.7033L70.4633 213.272H70.2953C69.9913 213.672 69.6313 214.024 69.2153 214.328C68.8153 214.632 68.3593 214.864 67.8473 215.024C67.3353 215.2 66.7753 215.288 66.1673 215.288ZM79.3573 215.288C78.9413 215.288 78.4933 215.24 78.0133 215.144C77.5493 215.048 77.1093 214.88 76.6933 214.64C76.2773 214.384 75.9333 214.024 75.6613 213.56C75.4053 213.08 75.2773 212.472 75.2773 211.736C75.2773 210.856 75.4693 210.128 75.8533 209.552C76.2373 208.976 76.7813 208.528 77.4853 208.208C78.2053 207.872 79.0613 207.64 80.0533 207.512C81.0453 207.384 82.1413 207.32 83.3413 207.32V206.384C83.3413 206.016 83.2773 205.696 83.1493 205.424C83.0373 205.152 82.8293 204.936 82.5253 204.776C82.2373 204.616 81.8293 204.536 81.3013 204.536C80.7733 204.536 80.3413 204.6 80.0053 204.728C79.6853 204.856 79.4533 205.024 79.3093 205.232C79.1813 205.424 79.1173 205.64 79.1173 205.88V206.168H75.8773C75.8613 206.088 75.8533 206.016 75.8533 205.952C75.8533 205.872 75.8533 205.776 75.8533 205.664C75.8533 204.928 76.0773 204.296 76.5253 203.768C76.9733 203.224 77.6053 202.808 78.4213 202.52C79.2373 202.232 80.1893 202.088 81.2773 202.088C82.4453 202.088 83.4213 202.24 84.2053 202.544C85.0053 202.848 85.6133 203.296 86.0293 203.888C86.4613 204.48 86.6773 205.224 86.6773 206.12V211.856C86.6773 212.144 86.7573 212.36 86.9173 212.504C87.0933 212.632 87.2853 212.696 87.4933 212.696H88.2853V214.88C88.1253 214.96 87.8773 215.04 87.5413 215.12C87.2053 215.216 86.7973 215.264 86.3173 215.264C85.8533 215.264 85.4373 215.192 85.0693 215.048C84.7173 214.92 84.4213 214.736 84.1813 214.496C83.9413 214.24 83.7733 213.936 83.6773 213.584H83.5093C83.2373 213.92 82.9013 214.216 82.5013 214.472C82.1173 214.728 81.6613 214.928 81.1333 215.072C80.6213 215.216 80.0293 215.288 79.3573 215.288ZM80.4853 212.768C80.9333 212.768 81.3333 212.704 81.6853 212.576C82.0373 212.432 82.3333 212.248 82.5733 212.024C82.8133 211.784 82.9973 211.496 83.1253 211.16C83.2693 210.824 83.3413 210.464 83.3413 210.08V209.384C82.4453 209.384 81.6453 209.448 80.9413 209.576C80.2373 209.688 79.6773 209.888 79.2613 210.176C78.8613 210.464 78.6613 210.864 78.6613 211.376C78.6613 211.664 78.7333 211.912 78.8773 212.12C79.0213 212.328 79.2293 212.488 79.5013 212.6C79.7733 212.712 80.1013 212.768 80.4853 212.768ZM89.4632 200.528V197.648H92.7992V200.528H89.4632ZM89.4632 215V202.376H92.7992V215H89.4632ZM100.494 215.288C99.6136 215.288 98.8216 215.192 98.1176 215C97.4136 214.808 96.8136 214.544 96.3176 214.208C95.8216 213.856 95.4376 213.44 95.1656 212.96C94.9096 212.48 94.7816 211.936 94.7816 211.328C94.7816 211.264 94.7816 211.2 94.7816 211.136C94.7816 211.072 94.7896 211.024 94.8056 210.992H98.0216C98.0216 211.024 98.0216 211.056 98.0216 211.088C98.0216 211.12 98.0216 211.152 98.0216 211.184C98.0376 211.584 98.1656 211.912 98.4056 212.168C98.6456 212.408 98.9576 212.584 99.3416 212.696C99.7416 212.808 100.158 212.864 100.59 212.864C100.974 212.864 101.342 212.832 101.694 212.768C102.062 212.688 102.366 212.552 102.606 212.36C102.862 212.168 102.99 211.92 102.99 211.616C102.99 211.232 102.83 210.936 102.51 210.728C102.206 210.52 101.798 210.352 101.286 210.224C100.79 210.096 100.246 209.952 99.6536 209.792C99.1096 209.664 98.5656 209.52 98.0216 209.36C97.4776 209.184 96.9816 208.96 96.5336 208.688C96.1016 208.416 95.7496 208.064 95.4776 207.632C95.2056 207.184 95.0696 206.624 95.0696 205.952C95.0696 205.296 95.2136 204.728 95.5016 204.248C95.7896 203.752 96.1816 203.344 96.6776 203.024C97.1896 202.704 97.7816 202.472 98.4536 202.328C99.1416 202.168 99.8776 202.088 100.662 202.088C101.398 202.088 102.086 202.168 102.726 202.328C103.366 202.472 103.926 202.696 104.406 203C104.886 203.288 105.262 203.656 105.534 204.104C105.806 204.536 105.942 205.024 105.942 205.568C105.942 205.68 105.942 205.784 105.942 205.88C105.942 205.976 105.934 206.04 105.918 206.072H102.726V205.88C102.726 205.592 102.638 205.352 102.462 205.16C102.286 204.952 102.03 204.792 101.694 204.68C101.374 204.568 100.982 204.512 100.518 204.512C100.198 204.512 99.9016 204.536 99.6296 204.584C99.3736 204.632 99.1496 204.704 98.9576 204.8C98.7656 204.896 98.6136 205.016 98.5016 205.16C98.4056 205.288 98.3576 205.448 98.3576 205.64C98.3576 205.912 98.4696 206.136 98.6936 206.312C98.9336 206.472 99.2456 206.608 99.6296 206.72C100.014 206.832 100.438 206.952 100.902 207.08C101.478 207.24 102.078 207.4 102.702 207.56C103.342 207.704 103.934 207.904 104.478 208.16C105.022 208.416 105.462 208.784 105.798 209.264C106.134 209.728 106.302 210.36 106.302 211.16C106.302 211.928 106.15 212.576 105.846 213.104C105.558 213.632 105.15 214.056 104.622 214.376C104.094 214.696 103.478 214.928 102.774 215.072C102.07 215.216 101.31 215.288 100.494 215.288ZM119.525 215.288C118.709 215.288 117.957 215.128 117.269 214.808C116.597 214.472 116.053 213.968 115.637 213.296H115.469L115.205 215H112.469V197.648H115.805V203.768H115.949C116.205 203.4 116.517 203.088 116.885 202.832C117.253 202.576 117.669 202.392 118.133 202.28C118.597 202.152 119.101 202.088 119.645 202.088C120.637 202.088 121.501 202.32 122.237 202.784C122.989 203.248 123.573 203.968 123.989 204.944C124.405 205.904 124.613 207.144 124.613 208.664C124.613 210.184 124.405 211.432 123.989 212.408C123.589 213.384 123.005 214.112 122.237 214.592C121.485 215.056 120.581 215.288 119.525 215.288ZM118.493 212.552C119.165 212.552 119.693 212.424 120.077 212.168C120.477 211.896 120.765 211.496 120.941 210.968C121.117 210.44 121.205 209.776 121.205 208.976V208.424C121.205 207.624 121.117 206.96 120.941 206.432C120.765 205.888 120.477 205.488 120.077 205.232C119.693 204.96 119.165 204.824 118.493 204.824C118.013 204.824 117.605 204.912 117.269 205.088C116.933 205.248 116.653 205.488 116.429 205.808C116.221 206.112 116.061 206.496 115.949 206.96C115.837 207.424 115.781 207.936 115.781 208.496V208.928C115.781 209.68 115.877 210.328 116.069 210.872C116.261 211.416 116.557 211.832 116.957 212.12C117.357 212.408 117.869 212.552 118.493 212.552ZM132.326 215.288C130.934 215.288 129.766 215.056 128.822 214.592C127.878 214.112 127.166 213.384 126.686 212.408C126.206 211.432 125.966 210.192 125.966 208.688C125.966 207.168 126.206 205.928 126.686 204.968C127.166 203.992 127.87 203.272 128.798 202.808C129.742 202.328 130.894 202.088 132.254 202.088C133.534 202.088 134.614 202.32 135.494 202.784C136.374 203.232 137.038 203.936 137.486 204.896C137.934 205.84 138.158 207.064 138.158 208.568V209.432H129.35C129.382 210.168 129.494 210.792 129.686 211.304C129.894 211.816 130.206 212.2 130.622 212.456C131.054 212.696 131.622 212.816 132.326 212.816C132.71 212.816 133.054 212.768 133.358 212.672C133.678 212.576 133.95 212.432 134.174 212.24C134.398 212.048 134.574 211.808 134.702 211.52C134.83 211.232 134.894 210.904 134.894 210.536H138.158C138.158 211.336 138.014 212.032 137.726 212.624C137.438 213.216 137.038 213.712 136.526 214.112C136.014 214.496 135.398 214.792 134.678 215C133.974 215.192 133.19 215.288 132.326 215.288ZM129.398 207.32H134.726C134.726 206.84 134.662 206.424 134.534 206.072C134.422 205.72 134.262 205.432 134.054 205.208C133.846 204.984 133.59 204.824 133.286 204.728C132.998 204.616 132.67 204.56 132.302 204.56C131.694 204.56 131.182 204.664 130.766 204.872C130.366 205.064 130.054 205.368 129.83 205.784C129.622 206.184 129.478 206.696 129.398 207.32ZM140.126 215V202.376H142.886L143.15 204.104H143.318C143.606 203.688 143.95 203.328 144.35 203.024C144.766 202.72 145.23 202.488 145.742 202.328C146.254 202.168 146.814 202.088 147.422 202.088C148.254 202.088 148.982 202.24 149.606 202.544C150.23 202.848 150.71 203.328 151.046 203.984C151.398 204.64 151.574 205.496 151.574 206.552V215H148.238V207.08C148.238 206.68 148.19 206.344 148.094 206.072C147.998 205.784 147.854 205.552 147.662 205.376C147.486 205.184 147.262 205.048 146.99 204.968C146.718 204.888 146.414 204.848 146.078 204.848C145.582 204.848 145.134 204.968 144.734 205.208C144.334 205.448 144.022 205.776 143.798 206.192C143.574 206.608 143.462 207.088 143.462 207.632V215H140.126ZM159.819 215.288C158.427 215.288 157.259 215.056 156.315 214.592C155.371 214.112 154.659 213.384 154.179 212.408C153.699 211.432 153.459 210.192 153.459 208.688C153.459 207.168 153.699 205.928 154.179 204.968C154.659 203.992 155.363 203.272 156.291 202.808C157.235 202.328 158.387 202.088 159.747 202.088C161.027 202.088 162.107 202.32 162.987 202.784C163.867 203.232 164.531 203.936 164.979 204.896C165.427 205.84 165.651 207.064 165.651 208.568V209.432H156.843C156.875 210.168 156.987 210.792 157.179 211.304C157.387 211.816 157.699 212.2 158.115 212.456C158.547 212.696 159.115 212.816 159.819 212.816C160.203 212.816 160.547 212.768 160.851 212.672C161.171 212.576 161.443 212.432 161.667 212.24C161.891 212.048 162.067 211.808 162.195 211.52C162.323 211.232 162.387 210.904 162.387 210.536H165.651C165.651 211.336 165.507 212.032 165.219 212.624C164.931 213.216 164.531 213.712 164.019 214.112C163.507 214.496 162.891 214.792 162.171 215C161.467 215.192 160.683 215.288 159.819 215.288ZM156.891 207.32H162.219C162.219 206.84 162.155 206.424 162.027 206.072C161.915 205.72 161.755 205.432 161.547 205.208C161.339 204.984 161.083 204.824 160.779 204.728C160.491 204.616 160.163 204.56 159.795 204.56C159.187 204.56 158.675 204.664 158.259 204.872C157.859 205.064 157.547 205.368 157.323 205.784C157.115 206.184 156.971 206.696 156.891 207.32ZM168.195 215V204.944H166.395V202.376H168.195V200.984C168.195 200.296 168.307 199.688 168.531 199.16C168.771 198.616 169.147 198.192 169.659 197.888C170.171 197.584 170.851 197.432 171.699 197.432C171.939 197.432 172.187 197.448 172.443 197.48C172.715 197.512 172.971 197.56 173.211 197.624C173.467 197.672 173.683 197.728 173.859 197.792V200H172.659C172.275 200 171.987 200.096 171.795 200.288C171.619 200.48 171.531 200.76 171.531 201.128V202.376H173.859V204.944H171.531V215H168.195ZM174.944 215V202.376H178.28V215H174.944ZM174.848 200.816L176.84 197.648H180.296L180.32 197.72L177.464 200.816H174.848ZM186.406 215.288C185.062 215.288 183.934 215.056 183.022 214.592C182.11 214.112 181.414 213.384 180.934 212.408C180.47 211.416 180.238 210.176 180.238 208.688C180.238 207.168 180.47 205.928 180.934 204.968C181.414 203.992 182.11 203.264 183.022 202.784C183.95 202.304 185.078 202.064 186.406 202.064C187.27 202.064 188.046 202.168 188.734 202.376C189.438 202.584 190.046 202.904 190.558 203.336C191.07 203.768 191.454 204.304 191.71 204.944C191.982 205.568 192.118 206.312 192.118 207.176H188.782C188.782 206.6 188.694 206.128 188.518 205.76C188.342 205.392 188.07 205.112 187.702 204.92C187.35 204.728 186.902 204.632 186.358 204.632C185.718 204.632 185.198 204.776 184.798 205.064C184.398 205.352 184.102 205.776 183.91 206.336C183.718 206.896 183.622 207.592 183.622 208.424V208.976C183.622 209.792 183.718 210.48 183.91 211.04C184.118 211.6 184.43 212.024 184.846 212.312C185.262 212.584 185.806 212.72 186.478 212.72C187.022 212.72 187.47 212.624 187.822 212.432C188.19 212.24 188.47 211.952 188.662 211.568C188.854 211.184 188.95 210.72 188.95 210.176H192.118C192.118 210.992 191.982 211.72 191.71 212.36C191.454 213 191.07 213.536 190.558 213.968C190.062 214.4 189.462 214.728 188.758 214.952C188.054 215.176 187.27 215.288 186.406 215.288ZM194.14 200.528V197.648H197.476V200.528H194.14ZM194.14 215V202.376H197.476V215H194.14ZM205.866 215.288C204.49 215.288 203.322 215.056 202.362 214.592C201.402 214.112 200.674 213.384 200.178 212.408C199.682 211.416 199.434 210.176 199.434 208.688C199.434 207.168 199.682 205.928 200.178 204.968C200.674 203.992 201.402 203.272 202.362 202.808C203.322 202.328 204.49 202.088 205.866 202.088C207.274 202.088 208.45 202.328 209.394 202.808C210.354 203.272 211.082 203.992 211.578 204.968C212.074 205.928 212.322 207.168 212.322 208.688C212.322 210.176 212.074 211.416 211.578 212.408C211.082 213.384 210.354 214.112 209.394 214.592C208.45 215.056 207.274 215.288 205.866 215.288ZM205.866 212.696C206.602 212.696 207.186 212.56 207.618 212.288C208.066 212.016 208.394 211.6 208.602 211.04C208.81 210.48 208.914 209.792 208.914 208.976V208.4C208.914 207.584 208.81 206.896 208.602 206.336C208.394 205.776 208.066 205.36 207.618 205.088C207.186 204.8 206.602 204.656 205.866 204.656C205.146 204.656 204.562 204.8 204.114 205.088C203.682 205.36 203.362 205.776 203.154 206.336C202.946 206.896 202.842 207.584 202.842 208.4V208.976C202.842 209.792 202.946 210.48 203.154 211.04C203.362 211.6 203.682 212.016 204.114 212.288C204.562 212.56 205.146 212.696 205.866 212.696ZM219.409 215.288C218.529 215.288 217.737 215.192 217.033 215C216.329 214.808 215.729 214.544 215.233 214.208C214.737 213.856 214.353 213.44 214.081 212.96C213.825 212.48 213.697 211.936 213.697 211.328C213.697 211.264 213.697 211.2 213.697 211.136C213.697 211.072 213.705 211.024 213.721 210.992H216.937C216.937 211.024 216.937 211.056 216.937 211.088C216.937 211.12 216.937 211.152 216.937 211.184C216.953 211.584 217.081 211.912 217.321 212.168C217.561 212.408 217.873 212.584 218.257 212.696C218.657 212.808 219.073 212.864 219.505 212.864C219.889 212.864 220.257 212.832 220.609 212.768C220.977 212.688 221.281 212.552 221.521 212.36C221.777 212.168 221.905 211.92 221.905 211.616C221.905 211.232 221.745 210.936 221.425 210.728C221.121 210.52 220.713 210.352 220.201 210.224C219.705 210.096 219.161 209.952 218.569 209.792C218.025 209.664 217.481 209.52 216.937 209.36C216.393 209.184 215.897 208.96 215.449 208.688C215.017 208.416 214.665 208.064 214.393 207.632C214.121 207.184 213.985 206.624 213.985 205.952C213.985 205.296 214.129 204.728 214.417 204.248C214.705 203.752 215.097 203.344 215.593 203.024C216.105 202.704 216.697 202.472 217.369 202.328C218.057 202.168 218.793 202.088 219.577 202.088C220.313 202.088 221.001 202.168 221.641 202.328C222.281 202.472 222.841 202.696 223.321 203C223.801 203.288 224.177 203.656 224.449 204.104C224.721 204.536 224.857 205.024 224.857 205.568C224.857 205.68 224.857 205.784 224.857 205.88C224.857 205.976 224.849 206.04 224.833 206.072H221.641V205.88C221.641 205.592 221.553 205.352 221.377 205.16C221.201 204.952 220.945 204.792 220.609 204.68C220.289 204.568 219.897 204.512 219.433 204.512C219.113 204.512 218.817 204.536 218.545 204.584C218.289 204.632 218.065 204.704 217.873 204.8C217.681 204.896 217.529 205.016 217.417 205.16C217.321 205.288 217.273 205.448 217.273 205.64C217.273 205.912 217.385 206.136 217.609 206.312C217.849 206.472 218.161 206.608 218.545 206.72C218.929 206.832 219.353 206.952 219.817 207.08C220.393 207.24 220.993 207.4 221.617 207.56C222.257 207.704 222.849 207.904 223.393 208.16C223.937 208.416 224.377 208.784 224.713 209.264C225.049 209.728 225.217 210.36 225.217 211.16C225.217 211.928 225.065 212.576 224.761 213.104C224.473 213.632 224.065 214.056 223.537 214.376C223.009 214.696 222.393 214.928 221.689 215.072C220.985 215.216 220.225 215.288 219.409 215.288ZM236.496 215.288C235.616 215.288 234.824 215.192 234.12 215C233.416 214.808 232.816 214.544 232.32 214.208C231.824 213.856 231.44 213.44 231.168 212.96C230.912 212.48 230.784 211.936 230.784 211.328C230.784 211.264 230.784 211.2 230.784 211.136C230.784 211.072 230.792 211.024 230.808 210.992H234.024C234.024 211.024 234.024 211.056 234.024 211.088C234.024 211.12 234.024 211.152 234.024 211.184C234.04 211.584 234.168 211.912 234.408 212.168C234.648 212.408 234.96 212.584 235.344 212.696C235.744 212.808 236.16 212.864 236.592 212.864C236.976 212.864 237.344 212.832 237.696 212.768C238.064 212.688 238.368 212.552 238.608 212.36C238.864 212.168 238.992 211.92 238.992 211.616C238.992 211.232 238.832 210.936 238.512 210.728C238.208 210.52 237.8 210.352 237.288 210.224C236.792 210.096 236.248 209.952 235.656 209.792C235.112 209.664 234.568 209.52 234.024 209.36C233.48 209.184 232.984 208.96 232.536 208.688C232.104 208.416 231.752 208.064 231.48 207.632C231.208 207.184 231.072 206.624 231.072 205.952C231.072 205.296 231.216 204.728 231.504 204.248C231.792 203.752 232.184 203.344 232.68 203.024C233.192 202.704 233.784 202.472 234.456 202.328C235.144 202.168 235.88 202.088 236.664 202.088C237.4 202.088 238.088 202.168 238.728 202.328C239.368 202.472 239.928 202.696 240.408 203C240.888 203.288 241.264 203.656 241.536 204.104C241.808 204.536 241.944 205.024 241.944 205.568C241.944 205.68 241.944 205.784 241.944 205.88C241.944 205.976 241.936 206.04 241.92 206.072H238.728V205.88C238.728 205.592 238.64 205.352 238.464 205.16C238.288 204.952 238.032 204.792 237.696 204.68C237.376 204.568 236.984 204.512 236.52 204.512C236.2 204.512 235.904 204.536 235.632 204.584C235.376 204.632 235.152 204.704 234.96 204.8C234.768 204.896 234.616 205.016 234.504 205.16C234.408 205.288 234.36 205.448 234.36 205.64C234.36 205.912 234.472 206.136 234.696 206.312C234.936 206.472 235.248 206.608 235.632 206.72C236.016 206.832 236.44 206.952 236.904 207.08C237.48 207.24 238.08 207.4 238.704 207.56C239.344 207.704 239.936 207.904 240.48 208.16C241.024 208.416 241.464 208.784 241.8 209.264C242.136 209.728 242.304 210.36 242.304 211.16C242.304 211.928 242.152 212.576 241.848 213.104C241.56 213.632 241.152 214.056 240.624 214.376C240.096 214.696 239.48 214.928 238.776 215.072C238.072 215.216 237.312 215.288 236.496 215.288ZM248.32 215.288C247.04 215.288 246.024 214.936 245.272 214.232C244.52 213.528 244.144 212.392 244.144 210.824V202.376H247.48V210.272C247.48 210.688 247.528 211.04 247.624 211.328C247.72 211.6 247.856 211.824 248.032 212C248.224 212.176 248.456 212.304 248.728 212.384C249 212.464 249.304 212.504 249.64 212.504C250.136 212.504 250.584 212.384 250.984 212.144C251.384 211.904 251.696 211.576 251.92 211.16C252.144 210.728 252.256 210.248 252.256 209.72V202.376H255.592V215H252.856L252.616 213.272H252.448C252.144 213.672 251.784 214.024 251.368 214.328C250.968 214.632 250.512 214.864 250 215.024C249.488 215.2 248.928 215.288 248.32 215.288ZM258.174 215V202.376H260.934L261.198 204.344H261.366C261.526 203.928 261.734 203.552 261.99 203.216C262.246 202.864 262.566 202.584 262.95 202.376C263.334 202.168 263.782 202.064 264.294 202.064C264.566 202.064 264.814 202.096 265.038 202.16C265.262 202.208 265.43 202.256 265.542 202.304V205.328H264.51C264.014 205.328 263.574 205.4 263.19 205.544C262.822 205.672 262.51 205.88 262.254 206.168C261.998 206.456 261.806 206.808 261.678 207.224C261.566 207.64 261.51 208.128 261.51 208.688V215H258.174ZM268.875 219.512C268.315 219.512 267.787 219.392 267.291 219.152C266.795 218.928 266.395 218.592 266.091 218.144C265.787 217.696 265.635 217.16 265.635 216.536C265.635 215.832 265.835 215.272 266.235 214.856C266.651 214.424 267.115 214.104 267.627 213.896C267.259 213.688 266.955 213.416 266.715 213.08C266.491 212.744 266.379 212.352 266.379 211.904C266.379 211.28 266.603 210.776 267.051 210.392C267.515 209.992 268.043 209.736 268.635 209.624C268.043 209.256 267.579 208.792 267.243 208.232C266.923 207.656 266.763 207.016 266.763 206.312C266.763 205.4 266.987 204.632 267.435 204.008C267.899 203.384 268.555 202.912 269.403 202.592C270.267 202.256 271.283 202.088 272.451 202.088C272.915 202.088 273.347 202.112 273.747 202.16C274.163 202.208 274.539 202.288 274.875 202.4C275.467 202.048 275.867 201.664 276.075 201.248C276.299 200.816 276.419 200.472 276.435 200.216H279.531C279.531 200.808 279.419 201.32 279.195 201.752C278.987 202.184 278.683 202.544 278.283 202.832C277.883 203.104 277.403 203.304 276.843 203.432C277.259 203.784 277.579 204.208 277.803 204.704C278.027 205.2 278.139 205.736 278.139 206.312C278.139 207.208 277.923 207.976 277.491 208.616C277.059 209.24 276.443 209.72 275.643 210.056C274.859 210.392 273.915 210.56 272.811 210.56H270.891C270.507 210.56 270.219 210.632 270.027 210.776C269.835 210.904 269.739 211.096 269.739 211.352C269.739 211.56 269.819 211.744 269.979 211.904C270.155 212.048 270.435 212.12 270.819 212.12H276.075C277.131 212.12 277.971 212.448 278.595 213.104C279.235 213.744 279.555 214.568 279.555 215.576C279.555 216.344 279.355 217.024 278.955 217.616C278.555 218.208 278.003 218.672 277.299 219.008C276.595 219.344 275.787 219.512 274.875 219.512H268.875ZM270.267 217.28H274.707C274.995 217.28 275.251 217.224 275.475 217.112C275.699 217.016 275.875 216.872 276.003 216.68C276.131 216.504 276.195 216.296 276.195 216.056C276.195 215.64 276.067 215.328 275.811 215.12C275.555 214.912 275.235 214.808 274.851 214.808H270.267C269.883 214.808 269.563 214.92 269.307 215.144C269.067 215.368 268.947 215.664 268.947 216.032C268.947 216.4 269.067 216.696 269.307 216.92C269.563 217.16 269.883 217.28 270.267 217.28ZM272.451 208.4C273.235 208.4 273.827 208.224 274.227 207.872C274.643 207.504 274.851 206.984 274.851 206.312C274.851 205.64 274.643 205.128 274.227 204.776C273.827 204.408 273.235 204.224 272.451 204.224C271.683 204.224 271.091 204.408 270.675 204.776C270.275 205.128 270.075 205.64 270.075 206.312C270.075 206.744 270.163 207.12 270.339 207.44C270.515 207.76 270.779 208 271.131 208.16C271.483 208.32 271.923 208.4 272.451 208.4ZM280.909 200.528V197.648H284.245V200.528H280.909ZM280.909 215V202.376H284.245V215H280.909ZM286.828 215V202.376H289.588L289.852 204.344H290.02C290.18 203.928 290.388 203.552 290.644 203.216C290.9 202.864 291.22 202.584 291.604 202.376C291.988 202.168 292.436 202.064 292.948 202.064C293.22 202.064 293.468 202.096 293.692 202.16C293.916 202.208 294.084 202.256 294.196 202.304V205.328H293.164C292.668 205.328 292.228 205.4 291.844 205.544C291.476 205.672 291.164 205.88 290.908 206.168C290.652 206.456 290.46 206.808 290.332 207.224C290.22 207.64 290.164 208.128 290.164 208.688V215H286.828ZM298.566 215.288C298.15 215.288 297.702 215.24 297.222 215.144C296.758 215.048 296.318 214.88 295.902 214.64C295.486 214.384 295.142 214.024 294.87 213.56C294.614 213.08 294.486 212.472 294.486 211.736C294.486 210.856 294.678 210.128 295.062 209.552C295.446 208.976 295.99 208.528 296.694 208.208C297.414 207.872 298.27 207.64 299.262 207.512C300.254 207.384 301.35 207.32 302.55 207.32V206.384C302.55 206.016 302.486 205.696 302.358 205.424C302.246 205.152 302.038 204.936 301.734 204.776C301.446 204.616 301.038 204.536 300.51 204.536C299.982 204.536 299.55 204.6 299.214 204.728C298.894 204.856 298.662 205.024 298.518 205.232C298.39 205.424 298.326 205.64 298.326 205.88V206.168H295.086C295.07 206.088 295.062 206.016 295.062 205.952C295.062 205.872 295.062 205.776 295.062 205.664C295.062 204.928 295.286 204.296 295.734 203.768C296.182 203.224 296.814 202.808 297.63 202.52C298.446 202.232 299.398 202.088 300.486 202.088C301.654 202.088 302.63 202.24 303.414 202.544C304.214 202.848 304.822 203.296 305.238 203.888C305.67 204.48 305.886 205.224 305.886 206.12V211.856C305.886 212.144 305.966 212.36 306.126 212.504C306.302 212.632 306.494 212.696 306.702 212.696H307.494V214.88C307.334 214.96 307.086 215.04 306.75 215.12C306.414 215.216 306.006 215.264 305.526 215.264C305.062 215.264 304.646 215.192 304.278 215.048C303.926 214.92 303.63 214.736 303.39 214.496C303.15 214.24 302.982 213.936 302.886 213.584H302.718C302.446 213.92 302.11 214.216 301.71 214.472C301.326 214.728 300.87 214.928 300.342 215.072C299.83 215.216 299.238 215.288 298.566 215.288ZM299.694 212.768C300.142 212.768 300.542 212.704 300.894 212.576C301.246 212.432 301.542 212.248 301.782 212.024C302.022 211.784 302.206 211.496 302.334 211.16C302.478 210.824 302.55 210.464 302.55 210.08V209.384C301.654 209.384 300.854 209.448 300.15 209.576C299.446 209.688 298.886 209.888 298.47 210.176C298.07 210.464 297.87 210.864 297.87 211.376C297.87 211.664 297.942 211.912 298.086 212.12C298.23 212.328 298.438 212.488 298.71 212.6C298.982 212.712 299.31 212.768 299.694 212.768ZM308.672 215V202.376H311.432L311.696 204.104H311.864C312.136 203.688 312.456 203.328 312.824 203.024C313.208 202.72 313.632 202.488 314.096 202.328C314.576 202.168 315.088 202.088 315.632 202.088C316.432 202.088 317.12 202.248 317.696 202.568C318.288 202.888 318.744 203.4 319.064 204.104H319.232C319.504 203.688 319.832 203.328 320.216 203.024C320.6 202.72 321.04 202.488 321.536 202.328C322.032 202.168 322.56 202.088 323.12 202.088C323.92 202.088 324.608 202.232 325.184 202.52C325.776 202.808 326.24 203.28 326.576 203.936C326.912 204.576 327.08 205.408 327.08 206.432V215H323.744V207.032C323.744 206.632 323.696 206.296 323.6 206.024C323.52 205.736 323.4 205.512 323.24 205.352C323.08 205.176 322.88 205.048 322.64 204.968C322.4 204.888 322.144 204.848 321.872 204.848C321.424 204.848 321.024 204.968 320.672 205.208C320.32 205.448 320.04 205.776 319.832 206.192C319.64 206.608 319.544 207.088 319.544 207.632V215H316.208V207.032C316.208 206.632 316.16 206.296 316.064 206.024C315.984 205.736 315.864 205.512 315.704 205.352C315.544 205.176 315.344 205.048 315.104 204.968C314.88 204.888 314.624 204.848 314.336 204.848C313.904 204.848 313.504 204.968 313.136 205.208C312.784 205.448 312.504 205.776 312.296 206.192C312.104 206.608 312.008 207.088 312.008 207.632V215H308.672ZM46.872 245.288C46.456 245.288 46.008 245.24 45.528 245.144C45.064 245.048 44.624 244.88 44.208 244.64C43.792 244.384 43.448 244.024 43.176 243.56C42.92 243.08 42.792 242.472 42.792 241.736C42.792 240.856 42.984 240.128 43.368 239.552C43.752 238.976 44.296 238.528 45 238.208C45.72 237.872 46.576 237.64 47.568 237.512C48.56 237.384 49.656 237.32 50.856 237.32V236.384C50.856 236.016 50.792 235.696 50.664 235.424C50.552 235.152 50.344 234.936 50.04 234.776C49.752 234.616 49.344 234.536 48.816 234.536C48.288 234.536 47.856 234.6 47.52 234.728C47.2 234.856 46.968 235.024 46.824 235.232C46.696 235.424 46.632 235.64 46.632 235.88V236.168H43.392C43.376 236.088 43.368 236.016 43.368 235.952C43.368 235.872 43.368 235.776 43.368 235.664C43.368 234.928 43.592 234.296 44.04 233.768C44.488 233.224 45.12 232.808 45.936 232.52C46.752 232.232 47.704 232.088 48.792 232.088C49.96 232.088 50.936 232.24 51.72 232.544C52.52 232.848 53.128 233.296 53.544 233.888C53.976 234.48 54.192 235.224 54.192 236.12V241.856C54.192 242.144 54.272 242.36 54.432 242.504C54.608 242.632 54.8 242.696 55.008 242.696H55.8V244.88C55.64 244.96 55.392 245.04 55.056 245.12C54.72 245.216 54.312 245.264 53.832 245.264C53.368 245.264 52.952 245.192 52.584 245.048C52.232 244.92 51.936 244.736 51.696 244.496C51.456 244.24 51.288 243.936 51.192 243.584H51.024C50.752 243.92 50.416 244.216 50.016 244.472C49.632 244.728 49.176 244.928 48.648 245.072C48.136 245.216 47.544 245.288 46.872 245.288ZM48 242.768C48.448 242.768 48.848 242.704 49.2 242.576C49.552 242.432 49.848 242.248 50.088 242.024C50.328 241.784 50.512 241.496 50.64 241.16C50.784 240.824 50.856 240.464 50.856 240.08V239.384C49.96 239.384 49.16 239.448 48.456 239.576C47.752 239.688 47.192 239.888 46.776 240.176C46.376 240.464 46.176 240.864 46.176 241.376C46.176 241.664 46.248 241.912 46.392 242.12C46.536 242.328 46.744 242.488 47.016 242.6C47.288 242.712 47.616 242.768 48 242.768ZM56.9779 249.272V232.376H59.7139L60.0019 234.08H60.1699C60.5859 233.392 61.1299 232.888 61.8019 232.568C62.4739 232.248 63.2179 232.088 64.0339 232.088C65.0899 232.088 65.9939 232.32 66.7459 232.784C67.5139 233.248 68.0979 233.968 68.4979 234.944C68.9139 235.92 69.1219 237.176 69.1219 238.712C69.1219 240.2 68.9139 241.432 68.4979 242.408C68.0819 243.384 67.4979 244.112 66.7459 244.592C66.0099 245.056 65.1459 245.288 64.1539 245.288C63.6099 245.288 63.1059 245.224 62.6419 245.096C62.1779 244.984 61.7619 244.8 61.3939 244.544C61.0259 244.288 60.7139 243.976 60.4579 243.608H60.3139V249.272H56.9779ZM63.0019 242.552C63.6739 242.552 64.2019 242.424 64.5859 242.168C64.9859 241.896 65.2739 241.496 65.4499 240.968C65.6259 240.424 65.7139 239.76 65.7139 238.976V238.424C65.7139 237.624 65.6259 236.96 65.4499 236.432C65.2739 235.888 64.9859 235.488 64.5859 235.232C64.2019 234.96 63.6739 234.824 63.0019 234.824C62.3779 234.824 61.8659 234.968 61.4659 235.256C61.0659 235.544 60.7699 235.96 60.5779 236.504C60.3859 237.048 60.2899 237.704 60.2899 238.472V238.88C60.2899 239.44 60.3459 239.952 60.4579 240.416C60.5699 240.864 60.7299 241.248 60.9379 241.568C61.1619 241.888 61.4419 242.136 61.7779 242.312C62.1139 242.472 62.5219 242.552 63.0019 242.552ZM76.9074 245.288C75.5314 245.288 74.3634 245.056 73.4034 244.592C72.4434 244.112 71.7154 243.384 71.2194 242.408C70.7234 241.416 70.4754 240.176 70.4754 238.688C70.4754 237.168 70.7234 235.928 71.2194 234.968C71.7154 233.992 72.4434 233.272 73.4034 232.808C74.3634 232.328 75.5314 232.088 76.9074 232.088C78.3154 232.088 79.4914 232.328 80.4354 232.808C81.3954 233.272 82.1234 233.992 82.6194 234.968C83.1154 235.928 83.3634 237.168 83.3634 238.688C83.3634 240.176 83.1154 241.416 82.6194 242.408C82.1234 243.384 81.3954 244.112 80.4354 244.592C79.4914 245.056 78.3154 245.288 76.9074 245.288ZM76.9074 242.696C77.6434 242.696 78.2274 242.56 78.6594 242.288C79.1074 242.016 79.4354 241.6 79.6434 241.04C79.8514 240.48 79.9554 239.792 79.9554 238.976V238.4C79.9554 237.584 79.8514 236.896 79.6434 236.336C79.4354 235.776 79.1074 235.36 78.6594 235.088C78.2274 234.8 77.6434 234.656 76.9074 234.656C76.1874 234.656 75.6034 234.8 75.1554 235.088C74.7234 235.36 74.4034 235.776 74.1954 236.336C73.9874 236.896 73.8834 237.584 73.8834 238.4V238.976C73.8834 239.792 73.9874 240.48 74.1954 241.04C74.4034 241.6 74.7234 242.016 75.1554 242.288C75.6034 242.56 76.1874 242.696 76.9074 242.696ZM75.1794 230.816L77.1714 227.648H80.6274L80.6514 227.72L77.7954 230.816H75.1794ZM90.4502 245.288C89.5702 245.288 88.7782 245.192 88.0742 245C87.3702 244.808 86.7702 244.544 86.2742 244.208C85.7782 243.856 85.3942 243.44 85.1222 242.96C84.8662 242.48 84.7382 241.936 84.7382 241.328C84.7382 241.264 84.7382 241.2 84.7382 241.136C84.7382 241.072 84.7462 241.024 84.7622 240.992H87.9782C87.9782 241.024 87.9782 241.056 87.9782 241.088C87.9782 241.12 87.9782 241.152 87.9782 241.184C87.9942 241.584 88.1222 241.912 88.3622 242.168C88.6022 242.408 88.9142 242.584 89.2982 242.696C89.6982 242.808 90.1142 242.864 90.5462 242.864C90.9302 242.864 91.2982 242.832 91.6502 242.768C92.0182 242.688 92.3222 242.552 92.5622 242.36C92.8182 242.168 92.9462 241.92 92.9462 241.616C92.9462 241.232 92.7862 240.936 92.4662 240.728C92.1622 240.52 91.7542 240.352 91.2422 240.224C90.7462 240.096 90.2022 239.952 89.6102 239.792C89.0662 239.664 88.5222 239.52 87.9782 239.36C87.4342 239.184 86.9382 238.96 86.4902 238.688C86.0582 238.416 85.7062 238.064 85.4342 237.632C85.1622 237.184 85.0262 236.624 85.0262 235.952C85.0262 235.296 85.1702 234.728 85.4582 234.248C85.7462 233.752 86.1382 233.344 86.6342 233.024C87.1462 232.704 87.7382 232.472 88.4102 232.328C89.0982 232.168 89.8342 232.088 90.6182 232.088C91.3542 232.088 92.0422 232.168 92.6822 232.328C93.3222 232.472 93.8822 232.696 94.3622 233C94.8422 233.288 95.2182 233.656 95.4902 234.104C95.7622 234.536 95.8982 235.024 95.8982 235.568C95.8982 235.68 95.8982 235.784 95.8982 235.88C95.8982 235.976 95.8902 236.04 95.8742 236.072H92.6822V235.88C92.6822 235.592 92.5942 235.352 92.4182 235.16C92.2422 234.952 91.9862 234.792 91.6502 234.68C91.3302 234.568 90.9382 234.512 90.4742 234.512C90.1542 234.512 89.8582 234.536 89.5862 234.584C89.3302 234.632 89.1062 234.704 88.9142 234.8C88.7222 234.896 88.5702 235.016 88.4582 235.16C88.3622 235.288 88.3142 235.448 88.3142 235.64C88.3142 235.912 88.4262 236.136 88.6502 236.312C88.8902 236.472 89.2022 236.608 89.5862 236.72C89.9702 236.832 90.3942 236.952 90.8582 237.08C91.4342 237.24 92.0342 237.4 92.6582 237.56C93.2982 237.704 93.8902 237.904 94.4342 238.16C94.9782 238.416 95.4182 238.784 95.7542 239.264C96.0902 239.728 96.2582 240.36 96.2582 241.16C96.2582 241.928 96.1062 242.576 95.8022 243.104C95.5142 243.632 95.1062 244.056 94.5782 244.376C94.0502 244.696 93.4342 244.928 92.7302 245.072C92.0262 245.216 91.2662 245.288 90.4502 245.288ZM105.761 245.288C105.345 245.288 104.897 245.24 104.417 245.144C103.953 245.048 103.513 244.88 103.097 244.64C102.681 244.384 102.337 244.024 102.065 243.56C101.809 243.08 101.681 242.472 101.681 241.736C101.681 240.856 101.873 240.128 102.257 239.552C102.641 238.976 103.185 238.528 103.889 238.208C104.609 237.872 105.465 237.64 106.457 237.512C107.449 237.384 108.545 237.32 109.745 237.32V236.384C109.745 236.016 109.681 235.696 109.553 235.424C109.441 235.152 109.233 234.936 108.929 234.776C108.641 234.616 108.233 234.536 107.705 234.536C107.177 234.536 106.745 234.6 106.409 234.728C106.089 234.856 105.857 235.024 105.713 235.232C105.585 235.424 105.521 235.64 105.521 235.88V236.168H102.281C102.265 236.088 102.257 236.016 102.257 235.952C102.257 235.872 102.257 235.776 102.257 235.664C102.257 234.928 102.481 234.296 102.929 233.768C103.377 233.224 104.009 232.808 104.825 232.52C105.641 232.232 106.593 232.088 107.681 232.088C108.849 232.088 109.825 232.24 110.609 232.544C111.409 232.848 112.017 233.296 112.433 233.888C112.865 234.48 113.081 235.224 113.081 236.12V241.856C113.081 242.144 113.161 242.36 113.321 242.504C113.497 242.632 113.689 242.696 113.897 242.696H114.689V244.88C114.529 244.96 114.281 245.04 113.945 245.12C113.609 245.216 113.201 245.264 112.721 245.264C112.257 245.264 111.841 245.192 111.473 245.048C111.121 244.92 110.825 244.736 110.585 244.496C110.345 244.24 110.177 243.936 110.081 243.584H109.913C109.641 243.92 109.305 244.216 108.905 244.472C108.521 244.728 108.065 244.928 107.537 245.072C107.025 245.216 106.433 245.288 105.761 245.288ZM106.889 242.768C107.337 242.768 107.737 242.704 108.089 242.576C108.441 242.432 108.737 242.248 108.977 242.024C109.217 241.784 109.401 241.496 109.529 241.16C109.673 240.824 109.745 240.464 109.745 240.08V239.384C108.849 239.384 108.049 239.448 107.345 239.576C106.641 239.688 106.081 239.888 105.665 240.176C105.265 240.464 105.065 240.864 105.065 241.376C105.065 241.664 105.137 241.912 105.281 242.12C105.425 242.328 105.633 242.488 105.905 242.6C106.177 242.712 106.505 242.768 106.889 242.768ZM120.098 230.528V227.648H123.434V230.528H120.098ZM120.098 245V232.376H123.434V245H120.098ZM126.016 245V232.376H128.776L129.04 234.104H129.208C129.48 233.688 129.8 233.328 130.168 233.024C130.552 232.72 130.976 232.488 131.44 232.328C131.92 232.168 132.432 232.088 132.976 232.088C133.776 232.088 134.464 232.248 135.04 232.568C135.632 232.888 136.088 233.4 136.408 234.104H136.576C136.848 233.688 137.176 233.328 137.56 233.024C137.944 232.72 138.384 232.488 138.88 232.328C139.376 232.168 139.904 232.088 140.464 232.088C141.264 232.088 141.952 232.232 142.528 232.52C143.12 232.808 143.584 233.28 143.92 233.936C144.256 234.576 144.424 235.408 144.424 236.432V245H141.088V237.032C141.088 236.632 141.04 236.296 140.944 236.024C140.864 235.736 140.744 235.512 140.584 235.352C140.424 235.176 140.224 235.048 139.984 234.968C139.744 234.888 139.488 234.848 139.216 234.848C138.768 234.848 138.368 234.968 138.016 235.208C137.664 235.448 137.384 235.776 137.176 236.192C136.984 236.608 136.888 237.088 136.888 237.632V245H133.552V237.032C133.552 236.632 133.504 236.296 133.408 236.024C133.328 235.736 133.208 235.512 133.048 235.352C132.888 235.176 132.688 235.048 132.448 234.968C132.224 234.888 131.968 234.848 131.68 234.848C131.248 234.848 130.848 234.968 130.48 235.208C130.128 235.448 129.848 235.776 129.64 236.192C129.448 236.608 129.352 237.088 129.352 237.632V245H126.016ZM146.911 249.272V232.376H149.647L149.935 234.08H150.103C150.519 233.392 151.063 232.888 151.735 232.568C152.407 232.248 153.151 232.088 153.967 232.088C155.023 232.088 155.927 232.32 156.679 232.784C157.447 233.248 158.031 233.968 158.431 234.944C158.847 235.92 159.055 237.176 159.055 238.712C159.055 240.2 158.847 241.432 158.431 242.408C158.015 243.384 157.431 244.112 156.679 244.592C155.943 245.056 155.079 245.288 154.087 245.288C153.543 245.288 153.039 245.224 152.575 245.096C152.111 244.984 151.695 244.8 151.327 244.544C150.959 244.288 150.647 243.976 150.391 243.608H150.247V249.272H146.911ZM152.935 242.552C153.607 242.552 154.135 242.424 154.519 242.168C154.919 241.896 155.207 241.496 155.383 240.968C155.559 240.424 155.647 239.76 155.647 238.976V238.424C155.647 237.624 155.559 236.96 155.383 236.432C155.207 235.888 154.919 235.488 154.519 235.232C154.135 234.96 153.607 234.824 152.935 234.824C152.311 234.824 151.799 234.968 151.399 235.256C150.999 235.544 150.703 235.96 150.511 236.504C150.319 237.048 150.223 237.704 150.223 238.472V238.88C150.223 239.44 150.279 239.952 150.391 240.416C150.503 240.864 150.663 241.248 150.871 241.568C151.095 241.888 151.375 242.136 151.711 242.312C152.047 242.472 152.455 242.552 152.935 242.552ZM161.033 245V227.648H164.369V245H161.033ZM172.687 245.288C171.295 245.288 170.127 245.056 169.183 244.592C168.239 244.112 167.527 243.384 167.047 242.408C166.567 241.432 166.327 240.192 166.327 238.688C166.327 237.168 166.567 235.928 167.047 234.968C167.527 233.992 168.231 233.272 169.159 232.808C170.103 232.328 171.255 232.088 172.615 232.088C173.895 232.088 174.975 232.32 175.855 232.784C176.735 233.232 177.399 233.936 177.847 234.896C178.295 235.84 178.519 237.064 178.519 238.568V239.432H169.711C169.743 240.168 169.855 240.792 170.047 241.304C170.255 241.816 170.567 242.2 170.983 242.456C171.415 242.696 171.983 242.816 172.687 242.816C173.071 242.816 173.415 242.768 173.719 242.672C174.039 242.576 174.311 242.432 174.535 242.24C174.759 242.048 174.935 241.808 175.063 241.52C175.191 241.232 175.255 240.904 175.255 240.536H178.519C178.519 241.336 178.375 242.032 178.087 242.624C177.799 243.216 177.399 243.712 176.887 244.112C176.375 244.496 175.759 244.792 175.039 245C174.335 245.192 173.551 245.288 172.687 245.288ZM169.759 237.32H175.087C175.087 236.84 175.023 236.424 174.895 236.072C174.783 235.72 174.623 235.432 174.415 235.208C174.207 234.984 173.951 234.824 173.647 234.728C173.359 234.616 173.031 234.56 172.663 234.56C172.055 234.56 171.543 234.664 171.127 234.872C170.727 235.064 170.415 235.368 170.191 235.784C169.983 236.184 169.839 236.696 169.759 237.32ZM180.487 245V232.376H183.247L183.511 234.104H183.679C183.951 233.688 184.271 233.328 184.639 233.024C185.023 232.72 185.447 232.488 185.911 232.328C186.391 232.168 186.903 232.088 187.447 232.088C188.247 232.088 188.935 232.248 189.511 232.568C190.103 232.888 190.559 233.4 190.879 234.104H191.047C191.319 233.688 191.647 233.328 192.031 233.024C192.415 232.72 192.855 232.488 193.351 232.328C193.847 232.168 194.375 232.088 194.935 232.088C195.735 232.088 196.423 232.232 196.999 232.52C197.591 232.808 198.055 233.28 198.391 233.936C198.727 234.576 198.895 235.408 198.895 236.432V245H195.559V237.032C195.559 236.632 195.511 236.296 195.415 236.024C195.335 235.736 195.215 235.512 195.055 235.352C194.895 235.176 194.695 235.048 194.455 234.968C194.215 234.888 193.959 234.848 193.687 234.848C193.239 234.848 192.839 234.968 192.487 235.208C192.135 235.448 191.855 235.776 191.647 236.192C191.455 236.608 191.359 237.088 191.359 237.632V245H188.023V237.032C188.023 236.632 187.975 236.296 187.879 236.024C187.799 235.736 187.679 235.512 187.519 235.352C187.359 235.176 187.159 235.048 186.919 234.968C186.695 234.888 186.439 234.848 186.151 234.848C185.719 234.848 185.319 234.968 184.951 235.208C184.599 235.448 184.319 235.776 184.111 236.192C183.919 236.608 183.823 237.088 183.823 237.632V245H180.487ZM207.118 245.288C205.726 245.288 204.558 245.056 203.614 244.592C202.67 244.112 201.958 243.384 201.478 242.408C200.998 241.432 200.758 240.192 200.758 238.688C200.758 237.168 200.998 235.928 201.478 234.968C201.958 233.992 202.662 233.272 203.59 232.808C204.534 232.328 205.686 232.088 207.046 232.088C208.326 232.088 209.406 232.32 210.286 232.784C211.166 233.232 211.83 233.936 212.278 234.896C212.726 235.84 212.95 237.064 212.95 238.568V239.432H204.142C204.174 240.168 204.286 240.792 204.478 241.304C204.686 241.816 204.998 242.2 205.414 242.456C205.846 242.696 206.414 242.816 207.118 242.816C207.502 242.816 207.846 242.768 208.15 242.672C208.47 242.576 208.742 242.432 208.966 242.24C209.19 242.048 209.366 241.808 209.494 241.52C209.622 241.232 209.686 240.904 209.686 240.536H212.95C212.95 241.336 212.806 242.032 212.518 242.624C212.23 243.216 211.83 243.712 211.318 244.112C210.806 244.496 210.19 244.792 209.47 245C208.766 245.192 207.982 245.288 207.118 245.288ZM204.19 237.32H209.518C209.518 236.84 209.454 236.424 209.326 236.072C209.214 235.72 209.054 235.432 208.846 235.208C208.638 234.984 208.382 234.824 208.078 234.728C207.79 234.616 207.462 234.56 207.094 234.56C206.486 234.56 205.974 234.664 205.558 234.872C205.158 235.064 204.846 235.368 204.622 235.784C204.414 236.184 204.27 236.696 204.19 237.32ZM214.918 245V232.376H217.678L217.942 234.104H218.11C218.398 233.688 218.742 233.328 219.142 233.024C219.558 232.72 220.022 232.488 220.534 232.328C221.046 232.168 221.606 232.088 222.214 232.088C223.046 232.088 223.774 232.24 224.398 232.544C225.022 232.848 225.502 233.328 225.838 233.984C226.19 234.64 226.366 235.496 226.366 236.552V245H223.03V237.08C223.03 236.68 222.982 236.344 222.886 236.072C222.79 235.784 222.646 235.552 222.454 235.376C222.278 235.184 222.054 235.048 221.782 234.968C221.51 234.888 221.206 234.848 220.87 234.848C220.374 234.848 219.926 234.968 219.526 235.208C219.126 235.448 218.814 235.776 218.59 236.192C218.366 236.608 218.254 237.088 218.254 237.632V245H214.918ZM232.643 245.288C231.843 245.288 231.195 245.144 230.699 244.856C230.203 244.568 229.843 244.184 229.619 243.704C229.395 243.208 229.283 242.664 229.283 242.072V234.944H227.723V232.376H229.403L230.027 228.776H232.619V232.376H234.923V234.944H232.619V241.52C232.619 241.904 232.707 242.2 232.883 242.408C233.059 242.6 233.347 242.696 233.747 242.696H234.923V244.904C234.731 244.968 234.507 245.024 234.251 245.072C233.995 245.136 233.723 245.184 233.435 245.216C233.147 245.264 232.883 245.288 232.643 245.288ZM239.934 245.288C239.518 245.288 239.07 245.24 238.59 245.144C238.126 245.048 237.686 244.88 237.27 244.64C236.854 244.384 236.51 244.024 236.238 243.56C235.982 243.08 235.854 242.472 235.854 241.736C235.854 240.856 236.046 240.128 236.43 239.552C236.814 238.976 237.358 238.528 238.062 238.208C238.782 237.872 239.638 237.64 240.63 237.512C241.622 237.384 242.718 237.32 243.918 237.32V236.384C243.918 236.016 243.854 235.696 243.726 235.424C243.614 235.152 243.406 234.936 243.102 234.776C242.814 234.616 242.406 234.536 241.878 234.536C241.35 234.536 240.918 234.6 240.582 234.728C240.262 234.856 240.03 235.024 239.886 235.232C239.758 235.424 239.694 235.64 239.694 235.88V236.168H236.454C236.438 236.088 236.43 236.016 236.43 235.952C236.43 235.872 236.43 235.776 236.43 235.664C236.43 234.928 236.654 234.296 237.102 233.768C237.55 233.224 238.182 232.808 238.998 232.52C239.814 232.232 240.766 232.088 241.854 232.088C243.022 232.088 243.998 232.24 244.782 232.544C245.582 232.848 246.19 233.296 246.606 233.888C247.038 234.48 247.254 235.224 247.254 236.12V241.856C247.254 242.144 247.334 242.36 247.494 242.504C247.67 242.632 247.862 242.696 248.07 242.696H248.862V244.88C248.702 244.96 248.454 245.04 248.118 245.12C247.782 245.216 247.374 245.264 246.894 245.264C246.43 245.264 246.014 245.192 245.646 245.048C245.294 244.92 244.998 244.736 244.758 244.496C244.518 244.24 244.35 243.936 244.254 243.584H244.086C243.814 243.92 243.478 244.216 243.078 244.472C242.694 244.728 242.238 244.928 241.71 245.072C241.198 245.216 240.606 245.288 239.934 245.288ZM241.062 242.768C241.51 242.768 241.91 242.704 242.262 242.576C242.614 242.432 242.91 242.248 243.15 242.024C243.39 241.784 243.574 241.496 243.702 241.16C243.846 240.824 243.918 240.464 243.918 240.08V239.384C243.022 239.384 242.222 239.448 241.518 239.576C240.814 239.688 240.254 239.888 239.838 240.176C239.438 240.464 239.238 240.864 239.238 241.376C239.238 241.664 239.31 241.912 239.454 242.12C239.598 242.328 239.806 242.488 240.078 242.6C240.35 242.712 240.678 242.768 241.062 242.768ZM255.584 245.288C254.24 245.288 253.112 245.056 252.2 244.592C251.288 244.112 250.592 243.384 250.112 242.408C249.648 241.416 249.416 240.176 249.416 238.688C249.416 237.168 249.648 235.928 250.112 234.968C250.592 233.992 251.288 233.264 252.2 232.784C253.128 232.304 254.256 232.064 255.584 232.064C256.448 232.064 257.224 232.168 257.912 232.376C258.616 232.584 259.224 232.904 259.736 233.336C260.248 233.768 260.632 234.304 260.888 234.944C261.16 235.568 261.296 236.312 261.296 237.176H257.96C257.96 236.6 257.872 236.128 257.696 235.76C257.52 235.392 257.248 235.112 256.88 234.92C256.528 234.728 256.08 234.632 255.536 234.632C254.896 234.632 254.376 234.776 253.976 235.064C253.576 235.352 253.28 235.776 253.088 236.336C252.896 236.896 252.8 237.592 252.8 238.424V238.976C252.8 239.792 252.896 240.48 253.088 241.04C253.296 241.6 253.608 242.024 254.024 242.312C254.44 242.584 254.984 242.72 255.656 242.72C256.2 242.72 256.648 242.624 257 242.432C257.368 242.24 257.648 241.952 257.84 241.568C258.032 241.184 258.128 240.72 258.128 240.176H261.296C261.296 240.992 261.16 241.72 260.888 242.36C260.632 243 260.248 243.536 259.736 243.968C259.24 244.4 258.64 244.728 257.936 244.952C257.232 245.176 256.448 245.288 255.584 245.288ZM255.392 249.512C254.96 249.512 254.504 249.488 254.024 249.44C253.56 249.408 253.152 249.36 252.8 249.296V248.072H255.08C255.4 248.072 255.648 248.032 255.824 247.952C256 247.888 256.088 247.736 256.088 247.496C256.088 247.304 256.024 247.16 255.896 247.064C255.768 246.968 255.512 246.92 255.128 246.92H254.096L254.456 244.592H256.424L256.256 245.792C256.64 245.808 257 245.88 257.336 246.008C257.688 246.136 257.968 246.32 258.176 246.56C258.384 246.8 258.488 247.12 258.488 247.52C258.488 247.92 258.384 248.248 258.176 248.504C257.968 248.776 257.704 248.984 257.384 249.128C257.08 249.272 256.744 249.368 256.376 249.416C256.024 249.48 255.696 249.512 255.392 249.512ZM266.654 245.288C266.238 245.288 265.79 245.24 265.31 245.144C264.846 245.048 264.406 244.88 263.99 244.64C263.574 244.384 263.23 244.024 262.958 243.56C262.702 243.08 262.574 242.472 262.574 241.736C262.574 240.856 262.766 240.128 263.15 239.552C263.534 238.976 264.078 238.528 264.782 238.208C265.502 237.872 266.358 237.64 267.35 237.512C268.342 237.384 269.438 237.32 270.638 237.32V236.384C270.638 236.016 270.574 235.696 270.446 235.424C270.334 235.152 270.126 234.936 269.822 234.776C269.534 234.616 269.126 234.536 268.598 234.536C268.07 234.536 267.638 234.6 267.302 234.728C266.982 234.856 266.75 235.024 266.606 235.232C266.478 235.424 266.414 235.64 266.414 235.88V236.168H263.174C263.158 236.088 263.15 236.016 263.15 235.952C263.15 235.872 263.15 235.776 263.15 235.664C263.15 234.928 263.374 234.296 263.822 233.768C264.27 233.224 264.902 232.808 265.718 232.52C266.534 232.232 267.486 232.088 268.574 232.088C269.742 232.088 270.718 232.24 271.502 232.544C272.302 232.848 272.91 233.296 273.326 233.888C273.758 234.48 273.974 235.224 273.974 236.12V241.856C273.974 242.144 274.054 242.36 274.214 242.504C274.39 242.632 274.582 242.696 274.79 242.696H275.582V244.88C275.422 244.96 275.174 245.04 274.838 245.12C274.502 245.216 274.094 245.264 273.614 245.264C273.15 245.264 272.734 245.192 272.366 245.048C272.014 244.92 271.718 244.736 271.478 244.496C271.238 244.24 271.07 243.936 270.974 243.584H270.806C270.534 243.92 270.198 244.216 269.798 244.472C269.414 244.728 268.958 244.928 268.43 245.072C267.918 245.216 267.326 245.288 266.654 245.288ZM267.782 242.768C268.23 242.768 268.63 242.704 268.982 242.576C269.334 242.432 269.63 242.248 269.87 242.024C270.11 241.784 270.294 241.496 270.422 241.16C270.566 240.824 270.638 240.464 270.638 240.08V239.384C269.742 239.384 268.942 239.448 268.238 239.576C267.534 239.688 266.974 239.888 266.558 240.176C266.158 240.464 265.958 240.864 265.958 241.376C265.958 241.664 266.03 241.912 266.174 242.12C266.318 242.328 266.526 242.488 266.798 242.6C267.07 242.712 267.398 242.768 267.782 242.768ZM264.278 230.6C264.278 230.072 264.366 229.584 264.542 229.136C264.734 228.688 265.014 228.328 265.382 228.056C265.75 227.784 266.214 227.648 266.774 227.648C267.222 227.648 267.638 227.72 268.022 227.864C268.406 228.008 268.782 228.152 269.15 228.296C269.518 228.44 269.894 228.512 270.278 228.512C270.518 228.512 270.71 228.448 270.854 228.32C271.014 228.176 271.118 227.952 271.166 227.648H272.846C272.846 228.16 272.758 228.64 272.582 229.088C272.406 229.536 272.134 229.904 271.766 230.192C271.398 230.464 270.926 230.6 270.35 230.6C269.934 230.6 269.526 230.528 269.126 230.384C268.742 230.224 268.366 230.072 267.998 229.928C267.63 229.784 267.262 229.712 266.894 229.712C266.654 229.712 266.454 229.784 266.294 229.928C266.15 230.056 266.054 230.28 266.006 230.6H264.278ZM282.568 245.288C281.192 245.288 280.024 245.056 279.064 244.592C278.104 244.112 277.376 243.384 276.88 242.408C276.384 241.416 276.136 240.176 276.136 238.688C276.136 237.168 276.384 235.928 276.88 234.968C277.376 233.992 278.104 233.272 279.064 232.808C280.024 232.328 281.192 232.088 282.568 232.088C283.976 232.088 285.152 232.328 286.096 232.808C287.056 233.272 287.784 233.992 288.28 234.968C288.776 235.928 289.024 237.168 289.024 238.688C289.024 240.176 288.776 241.416 288.28 242.408C287.784 243.384 287.056 244.112 286.096 244.592C285.152 245.056 283.976 245.288 282.568 245.288ZM282.568 242.696C283.304 242.696 283.888 242.56 284.32 242.288C284.768 242.016 285.096 241.6 285.304 241.04C285.512 240.48 285.616 239.792 285.616 238.976V238.4C285.616 237.584 285.512 236.896 285.304 236.336C285.096 235.776 284.768 235.36 284.32 235.088C283.888 234.8 283.304 234.656 282.568 234.656C281.848 234.656 281.264 234.8 280.816 235.088C280.384 235.36 280.064 235.776 279.856 236.336C279.648 236.896 279.544 237.584 279.544 238.4V238.976C279.544 239.792 279.648 240.48 279.856 241.04C280.064 241.6 280.384 242.016 280.816 242.288C281.264 242.56 281.848 242.696 282.568 242.696ZM299.693 245.288C298.653 245.288 297.749 245.056 296.981 244.592C296.229 244.112 295.645 243.384 295.229 242.408C294.813 241.432 294.605 240.184 294.605 238.664C294.605 237.144 294.813 235.904 295.229 234.944C295.661 233.968 296.245 233.248 296.981 232.784C297.733 232.32 298.597 232.088 299.573 232.088C300.117 232.088 300.621 232.152 301.085 232.28C301.565 232.392 301.981 232.576 302.333 232.832C302.701 233.088 303.013 233.4 303.269 233.768H303.413V227.648H306.749V245H304.013L303.749 243.296H303.581C303.165 243.968 302.621 244.472 301.949 244.808C301.277 245.128 300.525 245.288 299.693 245.288ZM300.749 242.552C301.373 242.552 301.877 242.408 302.261 242.12C302.661 241.832 302.957 241.416 303.149 240.872C303.341 240.328 303.437 239.68 303.437 238.928V238.496C303.437 237.936 303.381 237.424 303.269 236.96C303.173 236.496 303.013 236.112 302.789 235.808C302.565 235.488 302.285 235.248 301.949 235.088C301.613 234.912 301.213 234.824 300.749 234.824C300.077 234.824 299.541 234.96 299.141 235.232C298.741 235.488 298.453 235.888 298.277 236.432C298.101 236.96 298.013 237.624 298.013 238.424V238.976C298.013 239.776 298.101 240.44 298.277 240.968C298.453 241.496 298.741 241.896 299.141 242.168C299.541 242.424 300.077 242.552 300.749 242.552ZM312.687 245.288C312.271 245.288 311.823 245.24 311.343 245.144C310.879 245.048 310.439 244.88 310.023 244.64C309.607 244.384 309.263 244.024 308.991 243.56C308.735 243.08 308.607 242.472 308.607 241.736C308.607 240.856 308.799 240.128 309.183 239.552C309.567 238.976 310.111 238.528 310.815 238.208C311.535 237.872 312.391 237.64 313.383 237.512C314.375 237.384 315.471 237.32 316.671 237.32V236.384C316.671 236.016 316.607 235.696 316.479 235.424C316.367 235.152 316.159 234.936 315.855 234.776C315.567 234.616 315.159 234.536 314.631 234.536C314.103 234.536 313.671 234.6 313.335 234.728C313.015 234.856 312.783 235.024 312.639 235.232C312.511 235.424 312.447 235.64 312.447 235.88V236.168H309.207C309.191 236.088 309.183 236.016 309.183 235.952C309.183 235.872 309.183 235.776 309.183 235.664C309.183 234.928 309.407 234.296 309.855 233.768C310.303 233.224 310.935 232.808 311.751 232.52C312.567 232.232 313.519 232.088 314.607 232.088C315.775 232.088 316.751 232.24 317.535 232.544C318.335 232.848 318.943 233.296 319.359 233.888C319.791 234.48 320.007 235.224 320.007 236.12V241.856C320.007 242.144 320.087 242.36 320.247 242.504C320.423 242.632 320.615 242.696 320.823 242.696H321.615V244.88C321.455 244.96 321.207 245.04 320.871 245.12C320.535 245.216 320.127 245.264 319.647 245.264C319.183 245.264 318.767 245.192 318.399 245.048C318.047 244.92 317.751 244.736 317.511 244.496C317.271 244.24 317.103 243.936 317.007 243.584H316.839C316.567 243.92 316.231 244.216 315.831 244.472C315.447 244.728 314.991 244.928 314.463 245.072C313.951 245.216 313.359 245.288 312.687 245.288ZM313.815 242.768C314.263 242.768 314.663 242.704 315.015 242.576C315.367 242.432 315.663 242.248 315.903 242.024C316.143 241.784 316.327 241.496 316.455 241.16C316.599 240.824 316.671 240.464 316.671 240.08V239.384C315.775 239.384 314.975 239.448 314.271 239.576C313.567 239.688 313.007 239.888 312.591 240.176C312.191 240.464 311.991 240.864 311.991 241.376C311.991 241.664 312.063 241.912 312.207 242.12C312.351 242.328 312.559 242.488 312.831 242.6C313.103 242.712 313.431 242.768 313.815 242.768ZM43.824 275V258.536H52.392C53.576 258.536 54.56 258.76 55.344 259.208C56.144 259.64 56.744 260.256 57.144 261.056C57.56 261.84 57.768 262.776 57.768 263.864C57.768 264.952 57.552 265.904 57.12 266.72C56.704 267.52 56.088 268.144 55.272 268.592C54.456 269.04 53.456 269.264 52.272 269.264H47.4V275H43.824ZM47.4 266.336H51.792C52.544 266.336 53.12 266.12 53.52 265.688C53.936 265.256 54.144 264.656 54.144 263.888C54.144 263.36 54.056 262.92 53.88 262.568C53.704 262.216 53.44 261.944 53.088 261.752C52.752 261.56 52.32 261.464 51.792 261.464H47.4V266.336ZM64.9187 275.288C63.5427 275.288 62.3747 275.056 61.4147 274.592C60.4547 274.112 59.7267 273.384 59.2307 272.408C58.7347 271.416 58.4867 270.176 58.4867 268.688C58.4867 267.168 58.7347 265.928 59.2307 264.968C59.7267 263.992 60.4547 263.272 61.4147 262.808C62.3747 262.328 63.5427 262.088 64.9187 262.088C66.3267 262.088 67.5027 262.328 68.4467 262.808C69.4067 263.272 70.1347 263.992 70.6307 264.968C71.1267 265.928 71.3747 267.168 71.3747 268.688C71.3747 270.176 71.1267 271.416 70.6307 272.408C70.1347 273.384 69.4067 274.112 68.4467 274.592C67.5027 275.056 66.3267 275.288 64.9187 275.288ZM64.9187 272.696C65.6547 272.696 66.2387 272.56 66.6707 272.288C67.1187 272.016 67.4467 271.6 67.6547 271.04C67.8627 270.48 67.9667 269.792 67.9667 268.976V268.4C67.9667 267.584 67.8627 266.896 67.6547 266.336C67.4467 265.776 67.1187 265.36 66.6707 265.088C66.2387 264.8 65.6547 264.656 64.9187 264.656C64.1987 264.656 63.6147 264.8 63.1667 265.088C62.7347 265.36 62.4147 265.776 62.2067 266.336C61.9987 266.896 61.8947 267.584 61.8947 268.4V268.976C61.8947 269.792 61.9987 270.48 62.2067 271.04C62.4147 271.6 62.7347 272.016 63.1667 272.288C63.6147 272.56 64.1987 272.696 64.9187 272.696ZM73.3494 275V257.648H76.6854V275H73.3494ZM79.2679 260.528V257.648H82.6039V260.528H79.2679ZM79.2679 275V262.376H82.6039V275H79.2679ZM85.7623 275V264.944H83.9623V262.376H85.7623V260.984C85.7623 260.296 85.8743 259.688 86.0983 259.16C86.3383 258.616 86.7143 258.192 87.2263 257.888C87.7383 257.584 88.4183 257.432 89.2663 257.432C89.5063 257.432 89.7543 257.448 90.0103 257.48C90.2823 257.512 90.5383 257.56 90.7783 257.624C91.0343 257.672 91.2503 257.728 91.4263 257.792V260H90.2263C89.8423 260 89.5543 260.096 89.3623 260.288C89.1863 260.48 89.0983 260.76 89.0983 261.128V262.376H91.4263V264.944H89.0983V275H85.7623ZM92.511 275V262.376H95.271L95.535 264.344H95.703C95.863 263.928 96.071 263.552 96.327 263.216C96.583 262.864 96.903 262.584 97.287 262.376C97.671 262.168 98.119 262.064 98.631 262.064C98.903 262.064 99.151 262.096 99.375 262.16C99.599 262.208 99.767 262.256 99.879 262.304V265.328H98.847C98.351 265.328 97.911 265.4 97.527 265.544C97.159 265.672 96.847 265.88 96.591 266.168C96.335 266.456 96.143 266.808 96.015 267.224C95.903 267.64 95.847 268.128 95.847 268.688V275H92.511ZM106.65 275.288C105.258 275.288 104.09 275.056 103.146 274.592C102.202 274.112 101.49 273.384 101.01 272.408C100.53 271.432 100.29 270.192 100.29 268.688C100.29 267.168 100.53 265.928 101.01 264.968C101.49 263.992 102.194 263.272 103.122 262.808C104.066 262.328 105.218 262.088 106.578 262.088C107.858 262.088 108.938 262.32 109.818 262.784C110.698 263.232 111.362 263.936 111.81 264.896C112.258 265.84 112.482 267.064 112.482 268.568V269.432H103.674C103.706 270.168 103.818 270.792 104.01 271.304C104.218 271.816 104.53 272.2 104.946 272.456C105.378 272.696 105.946 272.816 106.65 272.816C107.034 272.816 107.378 272.768 107.682 272.672C108.002 272.576 108.274 272.432 108.498 272.24C108.722 272.048 108.898 271.808 109.026 271.52C109.154 271.232 109.218 270.904 109.218 270.536H112.482C112.482 271.336 112.338 272.032 112.05 272.624C111.762 273.216 111.362 273.712 110.85 274.112C110.338 274.496 109.722 274.792 109.002 275C108.298 275.192 107.514 275.288 106.65 275.288ZM103.722 267.32H109.05C109.05 266.84 108.986 266.424 108.858 266.072C108.746 265.72 108.586 265.432 108.378 265.208C108.17 264.984 107.914 264.824 107.61 264.728C107.322 264.616 106.994 264.56 106.626 264.56C106.018 264.56 105.506 264.664 105.09 264.872C104.69 265.064 104.378 265.368 104.154 265.784C103.946 266.184 103.802 266.696 103.722 267.32ZM118.217 275.288C117.417 275.288 116.769 275.144 116.273 274.856C115.777 274.568 115.417 274.184 115.193 273.704C114.969 273.208 114.857 272.664 114.857 272.072V264.944H113.297V262.376H114.977L115.601 258.776H118.193V262.376H120.497V264.944H118.193V271.52C118.193 271.904 118.281 272.2 118.457 272.408C118.633 272.6 118.921 272.696 119.321 272.696H120.497V274.904C120.305 274.968 120.081 275.024 119.825 275.072C119.569 275.136 119.297 275.184 119.009 275.216C118.721 275.264 118.457 275.288 118.217 275.288ZM127.909 275.288C126.517 275.288 125.349 275.056 124.405 274.592C123.461 274.112 122.749 273.384 122.269 272.408C121.789 271.432 121.549 270.192 121.549 268.688C121.549 267.168 121.789 265.928 122.269 264.968C122.749 263.992 123.453 263.272 124.381 262.808C125.325 262.328 126.477 262.088 127.837 262.088C129.117 262.088 130.197 262.32 131.077 262.784C131.957 263.232 132.621 263.936 133.069 264.896C133.517 265.84 133.741 267.064 133.741 268.568V269.432H124.933C124.965 270.168 125.077 270.792 125.269 271.304C125.477 271.816 125.789 272.2 126.205 272.456C126.637 272.696 127.205 272.816 127.909 272.816C128.293 272.816 128.637 272.768 128.941 272.672C129.261 272.576 129.533 272.432 129.757 272.24C129.981 272.048 130.157 271.808 130.285 271.52C130.413 271.232 130.477 270.904 130.477 270.536H133.741C133.741 271.336 133.597 272.032 133.309 272.624C133.021 273.216 132.621 273.712 132.109 274.112C131.597 274.496 130.981 274.792 130.261 275C129.557 275.192 128.773 275.288 127.909 275.288ZM124.981 267.32H130.309C130.309 266.84 130.245 266.424 130.117 266.072C130.005 265.72 129.845 265.432 129.637 265.208C129.429 264.984 129.173 264.824 128.869 264.728C128.581 264.616 128.253 264.56 127.885 264.56C127.277 264.56 126.765 264.664 126.349 264.872C125.949 265.064 125.637 265.368 125.413 265.784C125.205 266.184 125.061 266.696 124.981 267.32ZM139.939 275V262.376H142.699L142.963 264.104H143.131C143.419 263.688 143.763 263.328 144.163 263.024C144.579 262.72 145.043 262.488 145.555 262.328C146.067 262.168 146.627 262.088 147.235 262.088C148.067 262.088 148.795 262.24 149.419 262.544C150.043 262.848 150.523 263.328 150.859 263.984C151.211 264.64 151.387 265.496 151.387 266.552V275H148.051V267.08C148.051 266.68 148.003 266.344 147.907 266.072C147.811 265.784 147.667 265.552 147.475 265.376C147.299 265.184 147.075 265.048 146.803 264.968C146.531 264.888 146.227 264.848 145.891 264.848C145.395 264.848 144.947 264.968 144.547 265.208C144.147 265.448 143.835 265.776 143.611 266.192C143.387 266.608 143.275 267.088 143.275 267.632V275H139.939ZM157.233 275.288C156.817 275.288 156.369 275.24 155.889 275.144C155.425 275.048 154.985 274.88 154.569 274.64C154.153 274.384 153.809 274.024 153.537 273.56C153.281 273.08 153.153 272.472 153.153 271.736C153.153 270.856 153.345 270.128 153.729 269.552C154.113 268.976 154.657 268.528 155.361 268.208C156.081 267.872 156.937 267.64 157.929 267.512C158.921 267.384 160.017 267.32 161.217 267.32V266.384C161.217 266.016 161.153 265.696 161.025 265.424C160.913 265.152 160.705 264.936 160.401 264.776C160.113 264.616 159.705 264.536 159.177 264.536C158.649 264.536 158.217 264.6 157.881 264.728C157.561 264.856 157.329 265.024 157.185 265.232C157.057 265.424 156.993 265.64 156.993 265.88V266.168H153.753C153.737 266.088 153.729 266.016 153.729 265.952C153.729 265.872 153.729 265.776 153.729 265.664C153.729 264.928 153.953 264.296 154.401 263.768C154.849 263.224 155.481 262.808 156.297 262.52C157.113 262.232 158.065 262.088 159.153 262.088C160.321 262.088 161.297 262.24 162.081 262.544C162.881 262.848 163.489 263.296 163.905 263.888C164.337 264.48 164.553 265.224 164.553 266.12V271.856C164.553 272.144 164.633 272.36 164.793 272.504C164.969 272.632 165.161 272.696 165.369 272.696H166.161V274.88C166.001 274.96 165.753 275.04 165.417 275.12C165.081 275.216 164.673 275.264 164.193 275.264C163.729 275.264 163.313 275.192 162.945 275.048C162.593 274.92 162.297 274.736 162.057 274.496C161.817 274.24 161.649 273.936 161.553 273.584H161.385C161.113 273.92 160.777 274.216 160.377 274.472C159.993 274.728 159.537 274.928 159.009 275.072C158.497 275.216 157.905 275.288 157.233 275.288ZM158.361 272.768C158.809 272.768 159.209 272.704 159.561 272.576C159.913 272.432 160.209 272.248 160.449 272.024C160.689 271.784 160.873 271.496 161.001 271.16C161.145 270.824 161.217 270.464 161.217 270.08V269.384C160.321 269.384 159.521 269.448 158.817 269.576C158.113 269.688 157.553 269.888 157.137 270.176C156.737 270.464 156.537 270.864 156.537 271.376C156.537 271.664 156.609 271.912 156.753 272.12C156.897 272.328 157.105 272.488 157.377 272.6C157.649 272.712 157.977 272.768 158.361 272.768ZM171.857 275V258.536H181.265C182.129 258.536 182.905 258.704 183.593 259.04C184.297 259.376 184.849 259.848 185.249 260.456C185.649 261.064 185.849 261.776 185.849 262.592C185.849 263.248 185.729 263.832 185.489 264.344C185.249 264.856 184.921 265.28 184.505 265.616C184.105 265.952 183.649 266.2 183.137 266.36V266.456C183.745 266.584 184.281 266.824 184.745 267.176C185.225 267.528 185.601 267.984 185.873 268.544C186.161 269.088 186.305 269.736 186.305 270.488C186.305 271.48 186.073 272.312 185.609 272.984C185.161 273.656 184.561 274.16 183.809 274.496C183.057 274.832 182.217 275 181.289 275H171.857ZM175.433 272.072H180.593C181.185 272.072 181.665 271.904 182.033 271.568C182.417 271.232 182.609 270.712 182.609 270.008C182.609 269.592 182.529 269.232 182.369 268.928C182.209 268.624 181.969 268.392 181.649 268.232C181.329 268.056 180.921 267.968 180.425 267.968H175.433V272.072ZM175.433 265.184H180.185C180.617 265.184 180.977 265.104 181.265 264.944C181.569 264.768 181.793 264.544 181.937 264.272C182.097 263.984 182.177 263.656 182.177 263.288C182.177 262.664 182.001 262.192 181.649 261.872C181.313 261.552 180.865 261.392 180.305 261.392H175.433V265.184ZM188.41 275V262.376H191.17L191.434 264.344H191.602C191.762 263.928 191.97 263.552 192.226 263.216C192.482 262.864 192.802 262.584 193.186 262.376C193.57 262.168 194.018 262.064 194.53 262.064C194.802 262.064 195.05 262.096 195.274 262.16C195.498 262.208 195.666 262.256 195.778 262.304V265.328H194.746C194.25 265.328 193.81 265.4 193.426 265.544C193.058 265.672 192.746 265.88 192.49 266.168C192.234 266.456 192.042 266.808 191.914 267.224C191.802 267.64 191.746 268.128 191.746 268.688V275H188.41ZM197.047 260.528V257.648H200.383V260.528H197.047ZM197.047 275V262.376H200.383V275H197.047ZM206.733 275.288C205.933 275.288 205.285 275.144 204.789 274.856C204.293 274.568 203.933 274.184 203.709 273.704C203.485 273.208 203.373 272.664 203.373 272.072V264.944H201.813V262.376H203.493L204.117 258.776H206.709V262.376H209.013V264.944H206.709V271.52C206.709 271.904 206.797 272.2 206.973 272.408C207.149 272.6 207.437 272.696 207.837 272.696H209.013V274.904C208.821 274.968 208.597 275.024 208.341 275.072C208.085 275.136 207.813 275.184 207.525 275.216C207.237 275.264 206.973 275.288 206.733 275.288ZM213.952 275L209.248 262.376H212.776L214.624 267.704C214.72 267.976 214.832 268.336 214.96 268.784C215.104 269.232 215.248 269.704 215.392 270.2C215.536 270.696 215.656 271.144 215.752 271.544H215.872C215.984 271.176 216.104 270.752 216.232 270.272C216.36 269.776 216.488 269.304 216.616 268.856C216.76 268.392 216.88 268.008 216.976 267.704L218.824 262.376H222.184L217.456 275H213.952ZM223.334 260.528V257.648H226.67V260.528H223.334ZM223.334 275V262.376H226.67V275H223.334ZM234.796 275.288C233.452 275.288 232.324 275.056 231.412 274.592C230.5 274.112 229.804 273.384 229.324 272.408C228.86 271.416 228.628 270.176 228.628 268.688C228.628 267.168 228.86 265.928 229.324 264.968C229.804 263.992 230.5 263.264 231.412 262.784C232.34 262.304 233.468 262.064 234.796 262.064C235.66 262.064 236.436 262.168 237.124 262.376C237.828 262.584 238.436 262.904 238.948 263.336C239.46 263.768 239.844 264.304 240.1 264.944C240.372 265.568 240.508 266.312 240.508 267.176H237.172C237.172 266.6 237.084 266.128 236.908 265.76C236.732 265.392 236.46 265.112 236.092 264.92C235.74 264.728 235.292 264.632 234.748 264.632C234.108 264.632 233.588 264.776 233.188 265.064C232.788 265.352 232.492 265.776 232.3 266.336C232.108 266.896 232.012 267.592 232.012 268.424V268.976C232.012 269.792 232.108 270.48 232.3 271.04C232.508 271.6 232.82 272.024 233.236 272.312C233.652 272.584 234.196 272.72 234.868 272.72C235.412 272.72 235.86 272.624 236.212 272.432C236.58 272.24 236.86 271.952 237.052 271.568C237.244 271.184 237.34 270.72 237.34 270.176H240.508C240.508 270.992 240.372 271.72 240.1 272.36C239.844 273 239.46 273.536 238.948 273.968C238.452 274.4 237.852 274.728 237.148 274.952C236.444 275.176 235.66 275.288 234.796 275.288ZM246.754 270.104V268.976C246.754 268.4 246.842 267.912 247.018 267.512C247.21 267.096 247.442 266.736 247.714 266.432C248.002 266.112 248.306 265.832 248.626 265.592C248.946 265.336 249.242 265.088 249.514 264.848C249.802 264.592 250.034 264.312 250.21 264.008C250.402 263.704 250.498 263.36 250.498 262.976C250.498 262.8 250.474 262.6 250.426 262.376C250.378 262.152 250.274 261.936 250.114 261.728C249.97 261.504 249.746 261.328 249.442 261.2C249.138 261.056 248.738 260.984 248.242 260.984C247.698 260.984 247.258 261.064 246.922 261.224C246.602 261.384 246.354 261.592 246.178 261.848C246.018 262.088 245.906 262.344 245.842 262.616C245.794 262.888 245.77 263.144 245.77 263.384C245.77 263.496 245.77 263.608 245.77 263.72C245.77 263.816 245.778 263.92 245.794 264.032H242.506C242.49 263.936 242.466 263.816 242.434 263.672C242.418 263.528 242.41 263.36 242.41 263.168C242.41 262.608 242.49 262.08 242.65 261.584C242.826 261.088 243.074 260.64 243.394 260.24C243.73 259.824 244.146 259.472 244.642 259.184C245.138 258.88 245.706 258.648 246.346 258.488C246.986 258.328 247.698 258.248 248.482 258.248C249.154 258.248 249.778 258.312 250.354 258.44C250.946 258.552 251.466 258.736 251.914 258.992C252.378 259.232 252.77 259.528 253.09 259.88C253.41 260.232 253.658 260.64 253.834 261.104C254.01 261.568 254.098 262.08 254.098 262.64C254.098 263.344 253.994 263.944 253.786 264.44C253.578 264.92 253.306 265.344 252.97 265.712C252.65 266.064 252.306 266.376 251.938 266.648C251.57 266.92 251.218 267.192 250.882 267.464C250.562 267.72 250.298 268 250.09 268.304C249.882 268.608 249.778 268.976 249.778 269.408V270.104H246.754ZM246.562 275V271.64H249.97V275H246.562Z" fill="white"/>
</svg>
