<svg width="41" height="48" viewBox="0 0 41 48" fill="none" xmlns="http://www.w3.org/2000/svg">
<g clip-path="url(#clip0_160_7651)">
<path fill-rule="evenodd" clip-rule="evenodd" d="M1.10143 18.148L22.2108 0H38.1523L21.4888 14.3371L20.4337 15.2467H15.4047C15.0622 15.2929 14.7383 15.4317 14.4668 15.6506L13.4548 16.4368C13.1679 16.6557 13.1185 16.8407 13.3376 16.8407H22.9759C23.195 16.8407 23.1456 17.0195 22.8648 17.2446L21.8467 18.0339C21.5752 18.2497 21.2513 18.3885 20.9088 18.4317H16.7838C15.8459 19.4615 15.6854 20.9414 16.4753 21.8756L19.0823 24.9681L38.7169 48.0031H22.7754L0.505976 21.8695C-0.360981 20.852 -0.083308 19.1716 1.10143 18.148Z" fill="white"/>
<path fill-rule="evenodd" clip-rule="evenodd" d="M40.5897 15.6907L30.1707 3.28369H29.5845L21.2019 10.5201L25.549 15.6722C26.2525 16.5077 26.018 17.8705 25.0801 18.7184H28.9305C29.1526 18.7184 29.1002 18.8973 28.8132 19.1223L27.8044 19.9271C27.5421 20.1429 27.2243 20.2816 26.8911 20.331H20.5201C20.227 20.4019 19.9555 20.5345 19.7179 20.7164L18.7059 21.5057C18.419 21.7308 18.3665 21.9096 18.5887 21.9096H21.4024L16.9442 25.7513L23.0222 32.9754H23.6115L40.0991 18.7493C41.0802 17.9014 41.3024 16.5201 40.5681 15.6753L40.5927 15.6938L40.5897 15.6907Z" fill="#B90030"/>
</g>
<defs>
<clipPath id="clip0_160_7651">
<rect width="41" height="48" fill="white"/>
</clipPath>
</defs>
</svg>
