<svg width="24" height="24" viewBox="0 0 24 24" fill="none" xmlns="http://www.w3.org/2000/svg">
<g clip-path="url(#clip0_160_4178)">
<path d="M-1.52074e-05 22H24V24H-1.52074e-05V22ZM24 7.90901V10H21V18H23V20H0.999985V18H2.99998V10H-1.52074e-05V7.90901C-0.000114963 7.37005 0.14498 6.84101 0.420018 6.37751C0.695055 5.91402 1.08988 5.53317 1.56298 5.27501L10.563 0.366007C11.0036 0.124866 11.4977 -0.00152588 12 -0.00152588C12.5022 -0.00152588 12.9964 0.124866 13.437 0.366007L22.437 5.27501C22.9101 5.53317 23.3049 5.91402 23.58 6.37751C23.855 6.84101 24.0001 7.37005 24 7.90901ZM4.99998 18H7.99998V10H4.99998V18ZM9.99998 10V18H14V10H9.99998ZM19 10H16V18H19V10ZM22 7.90901C22 7.72935 21.9517 7.55301 21.86 7.39851C21.7683 7.24401 21.6367 7.11706 21.479 7.03101L12.479 2.12201C12.3321 2.04183 12.1674 1.99982 12 1.99982C11.8326 1.99982 11.6679 2.04183 11.521 2.12201L2.52098 7.03101C2.36328 7.11706 2.23167 7.24401 2.14 7.39851C2.04832 7.55301 1.99995 7.72935 1.99998 7.90901V8.00001H22V7.90901Z" fill="white"/>
</g>
<defs>
<clipPath id="clip0_160_4178">
<rect width="24" height="24" fill="white"/>
</clipPath>
</defs>
</svg>
