<svg width="56" height="56" viewBox="0 0 56 56" fill="none" xmlns="http://www.w3.org/2000/svg">
<g clip-path="url(#clip0_160_7741)">
<path d="M-1.52588e-05 18.6652V32.6652H18.4567C17.903 35.9238 16.2154 38.8819 13.6921 41.0167C11.1687 43.1516 7.97194 44.3258 4.66665 44.3319V48.9986C9.61565 48.993 14.3604 47.0246 17.8598 43.5251C21.3593 40.0256 23.3278 35.2809 23.3333 30.3319V9.33191H9.33332C6.85796 9.33191 4.48399 10.3152 2.73365 12.0656C0.983315 13.8159 -1.52588e-05 16.1899 -1.52588e-05 18.6652H-1.52588e-05Z" fill="#0030B9"/>
<path d="M42.0003 9.33191C39.525 9.33191 37.151 10.3152 35.4007 12.0656C33.6503 13.8159 32.667 16.1899 32.667 18.6652V32.6652H51.1237C50.57 35.9238 48.8824 38.8819 46.3591 41.0167C43.8357 43.1516 40.6389 44.3258 37.3337 44.3319V48.9986C42.2827 48.993 47.0274 47.0246 50.5268 43.5251C54.0263 40.0256 55.9948 35.2809 56.0003 30.3319V9.33191H42.0003Z" fill="#0030B9"/>
</g>
<defs>
<clipPath id="clip0_160_7741">
<rect width="56" height="56" fill="white"/>
</clipPath>
</defs>
</svg>
