<svg width="24" height="24" viewBox="0 0 24 24" fill="none" xmlns="http://www.w3.org/2000/svg">
<g clip-path="url(#clip0_160_4146)">
<path d="M13.0001 14.9996H11.0001V4.99956H13.0001V14.9996ZM12.7931 23.7076C14.9531 22.8396 22.0001 19.4276 22.0001 11.9906V5.46656C22.0003 4.83699 21.8019 4.22339 21.4331 3.71313C21.0643 3.20287 20.544 2.82194 19.9461 2.62456L12.0001 -0.010437L4.05414 2.62456C3.45631 2.82194 2.93596 3.20287 2.56718 3.71313C2.1984 4.22339 1.99997 4.83699 2.00015 5.46656V11.9906C2.00015 18.5536 9.00514 22.5666 11.1531 23.6416L11.9531 24.0416L12.7931 23.7076ZM19.3161 4.52256C19.5145 4.58864 19.6872 4.71525 19.8099 4.88458C19.9326 5.05392 19.9991 5.25745 20.0001 5.46656V11.9906C20.0001 18.1736 13.9131 21.1026 12.0471 21.8526C10.1591 20.9076 4.00014 17.4066 4.00014 11.9906V5.46656C4.00114 5.25745 4.06767 5.05392 4.19036 4.88458C4.31306 4.71525 4.48575 4.58864 4.68414 4.52256L12.0001 2.09956L19.3161 4.52256ZM13.0001 16.9996H11.0001V18.9996H13.0001V16.9996Z" fill="white"/>
</g>
<defs>
<clipPath id="clip0_160_4146">
<rect width="24" height="24" fill="white"/>
</clipPath>
</defs>
</svg>
