<svg width="32" height="32" viewBox="0 0 32 32" fill="none" xmlns="http://www.w3.org/2000/svg">
<path d="M1 31.601L3.151 23.7429C1.82368 21.4427 1.12623 18.8353 1.1275 16.1615C1.13133 7.80235 7.93368 1 16.2916 1C20.3475 1.00128 24.1548 2.58105 27.0185 5.44735C29.881 8.31364 31.4569 12.1235 31.4557 16.1755C31.4518 24.536 24.6495 31.3383 16.2916 31.3383C13.7542 31.3371 11.2539 30.7008 9.03914 29.4921L1 31.601ZM9.41145 26.7469C11.5484 28.0156 13.5885 28.7755 16.2865 28.7768C23.2329 28.7768 28.8915 23.1233 28.8954 16.173C28.8979 9.20872 23.2661 3.56283 16.2967 3.56028C9.34515 3.56028 3.69034 9.21382 3.68779 16.1628C3.68651 18.9998 4.51784 21.124 5.91401 23.3464L4.64024 27.9977L9.41145 26.7469ZM23.9304 19.7801C23.836 19.622 23.5835 19.5276 23.2036 19.3377C22.8249 19.1477 20.9621 18.2309 20.614 18.1047C20.2672 17.9785 20.0147 17.9147 19.761 18.2947C19.5085 18.6734 18.7817 19.5276 18.5612 19.7801C18.3406 20.0325 18.1187 20.0644 17.74 19.8744C17.3613 19.6845 16.1398 19.2854 14.6927 17.9938C13.5668 16.989 12.8056 15.7484 12.585 15.3684C12.3644 14.9898 12.5621 14.7845 12.7508 14.5958C12.9216 14.4262 13.1295 14.1533 13.3195 13.9315C13.512 13.7122 13.5745 13.5541 13.702 13.3003C13.8282 13.0479 13.7657 12.826 13.6701 12.636C13.5745 12.4473 12.8171 10.5819 12.5022 9.82329C12.1936 9.08504 11.8812 9.18449 11.6491 9.17302L10.9224 9.16027C10.6699 9.16027 10.2594 9.25462 9.91254 9.63458C9.56573 10.0145 8.5865 10.93 8.5865 12.7954C8.5865 14.6608 9.94442 16.4624 10.1331 16.7149C10.3231 16.9673 12.8043 20.795 16.6052 22.436C17.5092 22.8262 18.2156 23.0595 18.7652 23.2342C19.673 23.5223 20.4992 23.4815 21.152 23.3846C21.8801 23.2763 23.3936 22.4679 23.7098 21.583C24.026 20.6968 24.026 19.9382 23.9304 19.7801Z" fill="white"/>
</svg>
