<svg width="20" height="14" viewBox="0 0 20 14" fill="none" xmlns="http://www.w3.org/2000/svg">
<path d="M1.17209 11.8646C1.27877 12.2523 1.48306 12.6061 1.76545 12.8924C2.04784 13.1786 2.39889 13.3877 2.78509 13.4996C4.68509 14.0186 15.3691 14.0196 17.3021 13.4996C17.6879 13.387 18.0386 13.1777 18.3209 12.8916C18.6032 12.6054 18.8077 12.2519 18.9151 11.8646C19.4399 8.81167 19.4321 5.6909 18.8921 2.64061L18.9151 2.79161C18.8083 2.40412 18.6039 2.05047 18.3215 1.76442C18.0391 1.47836 17.6882 1.26945 17.3021 1.15761C15.4221 0.647614 4.71609 0.627614 2.78509 1.15761C2.39934 1.2704 2.04874 1.47976 1.76648 1.76586C1.48423 2.05197 1.27964 2.40537 1.17209 2.79261C0.618825 5.79131 0.618825 8.86592 1.17209 11.8646V11.8646ZM8.18909 10.1476V4.51661L13.0281 7.33661L8.18909 10.1476Z" fill="white"/>
</svg>
